<?xml version="1.0" encoding="UTF-8"?>
<svg id="Layer_1" xmlns="http://www.w3.org/2000/svg" xmlns:xlink="http://www.w3.org/1999/xlink" version="1.1" viewBox="0 0 1000 1000">
  <!-- Generator: Adobe Illustrator 30.1.0, SVG Export Plug-In . SVG Version: 2.1.1 Build 136)  -->
  <defs>
    <style>
      .st0 {
        fill: #fff;
      }

      .st1 {
        clip-path: url(#clippath);
      }
    </style>
    <clipPath id="clippath">
      <path class="st0" d="M13.2,554.2c-3.1,0-5.5-2.5-5.5-5.5v-74.1c0-3.1,2.5-5.5,5.5-5.5s5.5,2.5,5.5,5.5v74.1c0,3.1-2.5,5.5-5.5,5.5ZM50.4,531.1v-39c0-3.1-2.5-5.5-5.5-5.5s-5.5,2.5-5.5,5.5v39c0,3.1,2.5,5.5,5.5,5.5s5.5-2.5,5.5-5.5ZM82.1,568.9v-114.5c0-3.1-2.5-5.5-5.5-5.5s-5.5,2.5-5.5,5.5v114.5c0,3.1,2.5,5.5,5.5,5.5s5.5-2.5,5.5-5.5ZM113.7,605.8v-188.3c0-3.1-2.5-5.5-5.5-5.5s-5.5,2.5-5.5,5.5v188.3c0,3.1,2.5,5.5,5.5,5.5s5.5-2.5,5.5-5.5ZM145.4,568.9v-114.5c0-3.1-2.5-5.5-5.5-5.5s-5.5,2.5-5.5,5.5v114.5c0,3.1,2.5,5.5,5.5,5.5s5.5-2.5,5.5-5.5ZM177.1,589.6v-109.1c0-3.1-2.5-5.5-5.5-5.5s-5.5,2.5-5.5,5.5v109.1c0,3.1,2.5,5.5,5.5,5.5s5.5-2.5,5.5-5.5ZM208.7,524.4v-25.6c0-3.1-2.5-5.5-5.5-5.5s-5.5,2.5-5.5,5.5v25.6c0,3.1,2.5,5.5,5.5,5.5s5.5-2.5,5.5-5.5ZM245,445.2v-6.1c-16.7,0-30.2-13.5-30.2-30.2h-6.1c0,16.7-13.5,30.2-30.2,30.2v6.1c16.7,0,30.2,13.5,30.2,30.2h6.1c0-16.7,13.5-30.2,30.2-30.2ZM193,404.4v-2.6c-7.2,0-13.1-5.9-13.1-13.1h-2.6c0,7.2-5.9,13.1-13.1,13.1v2.6c7.2,0,13.1,5.9,13.1,13.1h2.6c0-7.2,5.9-13.1,13.1-13.1Z"/>
    </clipPath>
  </defs>
  <g>
    <path class="st0" d="M13.2,554.2c-3.1,0-5.5-2.5-5.5-5.5v-74.1c0-3.1,2.5-5.5,5.5-5.5s5.5,2.5,5.5,5.5v74.1c0,3.1-2.5,5.5-5.5,5.5ZM50.4,531.1v-39c0-3.1-2.5-5.5-5.5-5.5s-5.5,2.5-5.5,5.5v39c0,3.1,2.5,5.5,5.5,5.5s5.5-2.5,5.5-5.5ZM82.1,568.9v-114.5c0-3.1-2.5-5.5-5.5-5.5s-5.5,2.5-5.5,5.5v114.5c0,3.1,2.5,5.5,5.5,5.5s5.5-2.5,5.5-5.5ZM113.7,605.8v-188.3c0-3.1-2.5-5.5-5.5-5.5s-5.5,2.5-5.5,5.5v188.3c0,3.1,2.5,5.5,5.5,5.5s5.5-2.5,5.5-5.5ZM145.4,568.9v-114.5c0-3.1-2.5-5.5-5.5-5.5s-5.5,2.5-5.5,5.5v114.5c0,3.1,2.5,5.5,5.5,5.5s5.5-2.5,5.5-5.5ZM177.1,589.6v-109.1c0-3.1-2.5-5.5-5.5-5.5s-5.5,2.5-5.5,5.5v109.1c0,3.1,2.5,5.5,5.5,5.5s5.5-2.5,5.5-5.5ZM208.7,524.4v-25.6c0-3.1-2.5-5.5-5.5-5.5s-5.5,2.5-5.5,5.5v25.6c0,3.1,2.5,5.5,5.5,5.5s5.5-2.5,5.5-5.5ZM245,445.2v-6.1c-16.7,0-30.2-13.5-30.2-30.2h-6.1c0,16.7-13.5,30.2-30.2,30.2v6.1c16.7,0,30.2,13.5,30.2,30.2h6.1c0-16.7,13.5-30.2,30.2-30.2ZM193,404.4v-2.6c-7.2,0-13.1-5.9-13.1-13.1h-2.6c0,7.2-5.9,13.1-13.1,13.1v2.6c7.2,0,13.1,5.9,13.1,13.1h2.6c0-7.2,5.9-13.1,13.1-13.1Z"/>
    <g class="st1">
      <rect class="st0" x="7.6" y="366" width="237.4" height="245.3"/>
    </g>
  </g>
  <g>
    <g>
      <path class="st0" d="M358,450.9c1.6,0,3,.4,4.2,1.3,1.2.9,2.1,2,2.6,3.5l31.6,95.3h-19.4l-23.9-77.2c-.4-1.5-.8-3.1-1.2-4.6-.4-1.5-.8-3-1.1-4.5h-4.2c-.3,1.5-.7,3-1.1,4.5-.4,1.5-.9,3.1-1.4,4.6l-23.8,77.2h-19.4l31.6-95.3c.4-1.5,1.2-2.6,2.5-3.5,1.3-.9,2.7-1.3,4.3-1.3h18.5ZM375.6,508.2v14.2h-53.7v-14.2h53.7Z"/>
      <path class="st0" d="M434.3,478c3.4,0,7.1,0,11.1.3,4,.2,7.9.5,11.7.8,3.8.3,7.3.8,10.3,1.4l-1.2,11.5c-4.8,0-9.7-.2-14.5-.4-4.8-.1-9.5-.2-14.2-.2s-7.4,0-9.8.3c-2.4.2-4,.8-5,1.7-1,1-1.4,2.6-1.4,4.9s.8,4.7,2.4,5.6c1.6.9,4.2,1.8,7.9,2.7l20.3,4.5c6.1,1.5,10.5,3.7,13.5,6.6,2.9,3,4.4,7.5,4.4,13.6s-1.1,10.4-3.4,13.4c-2.3,3-5.9,5.1-10.7,6.2-4.9,1.1-11.1,1.7-18.7,1.7s-7.3-.1-13-.4c-5.8-.2-12.1-.9-18.9-2l1.2-11.5c2,0,4.4,0,7.2.1,2.8,0,5.8.1,8.9.1h9.8c5.3,0,9.5-.2,12.3-.5,2.9-.3,4.9-1.1,6-2.2,1.1-1.1,1.7-2.7,1.7-4.9s-.9-4.5-2.8-5.4c-1.9-.9-4.6-1.8-8.3-2.7l-19.8-4.6c-4.5-1.2-8.1-2.6-10.6-4.4-2.5-1.8-4.3-4-5.5-6.7-1.1-2.7-1.7-5.9-1.7-9.8s1-9.3,3.1-12.2c2.1-2.9,5.3-4.9,9.8-6.1,4.5-1.2,10.4-1.7,17.8-1.6Z"/>
      <path class="st0" d="M519.7,478c2.5,0,5.3,0,8.3.3,3,.2,6.1.6,9.2,1.2,3.1.6,6,1.4,8.5,2.5l-2.1,11c-3.7-.2-7.4-.3-11.1-.4-3.7,0-6.9-.1-9.6-.1-5.1,0-9.2.7-12.2,2-3,1.3-5.1,3.6-6.4,7-1.3,3.3-2,8-2,14s.7,10.7,2,14c1.3,3.3,3.5,5.7,6.4,7,3,1.4,7,2,12.2,2s3.5,0,6-.1c2.5,0,5.1-.2,8-.4,2.9-.2,5.7-.4,8.4-.7l1.8,11.3c-3.9,1.5-8.3,2.7-13.2,3.3-4.8.7-9.6,1-14.4,1-8.9,0-16-1.2-21.3-3.6-5.4-2.4-9.2-6.4-11.6-11.8-2.4-5.5-3.6-12.8-3.6-22s1.2-16.5,3.6-22c2.4-5.5,6.3-9.4,11.7-11.8,5.3-2.4,12.5-3.6,21.3-3.6Z"/>
      <path class="st0" d="M580,479.8v48.2c-.1,3.6.6,6.1,2.2,7.7,1.6,1.5,4.1,2.3,7.6,2.3s7.1-.7,10.6-2.2c3.5-1.5,7.8-3.6,12.9-6.5l1.8,10.4c-5.7,4.4-11.1,7.6-16.4,9.9-5.2,2.2-10.7,3.3-16.4,3.3-13.8,0-20.7-6.5-20.7-19.6v-53.5h18.3ZM629.8,479.8v71.2h-14.5l-2-13.8-1.8-2v-55.4h18.3Z"/>
      <path class="st0" d="M668.8,449.5l-.2,80.1c0,2.7.8,4.8,2.4,6.2,1.6,1.4,3.9,2.1,7,2.1h6.5l2.1,12.3c-1.1.5-2.6.9-4.6,1.3-2,.4-4,.7-6.1.8-2.1.1-3.9.2-5.4.2-6.2,0-11.1-1.6-14.7-4.8s-5.5-7.8-5.5-13.8v-84.4h18.3Z"/>
      <path class="st0" d="M743.2,479.8v12.2h-53.6v-11.5l14.5-.7h39.1ZM721.1,459.5v70.1c0,3,.7,5.1,2,6.4,1.4,1.3,3.7,1.9,7,1.9h10.3l2,12.3c-1.7.5-3.8.9-6.2,1.3-2.4.4-4.8.7-7.1.8-2.3.1-4.3.2-5.9.2-6.5,0-11.5-1.7-15.1-5-3.6-3.3-5.4-8.1-5.4-14.4v-73.6h18.3Z"/>
      <path class="st0" d="M908.2,450.9c2.3,0,4.4.6,6.1,1.9,1.8,1.3,3,3,3.6,5.2l28.6,93h-29.1l-18.3-69.1c-.4-1.6-.8-3.4-1.1-5.3-.3-1.9-.6-3.6-.9-5.3h-4.1c-.2,1.6-.5,3.4-.8,5.3-.4,1.9-.7,3.7-1.1,5.3l-18.3,69.1h-29.1l28.6-93c.6-2.2,1.8-4,3.6-5.2,1.8-1.3,3.8-1.9,6.1-1.9h26.2ZM922.6,507.6v19.6h-55v-19.6h55Z"/>
      <path class="st0" d="M983.1,450.9v100.1h-28.2v-100.1h28.2Z"/>
    </g>
    <path class="st0" d="M800,551h-8.4c0-17.5-14.2-31.7-31.7-31.7v-8.4c17.5,0,31.7-14.2,31.7-31.7h8.4c0,17.5,14.2,31.7,31.7,31.7v8.4c-17.5,0-31.7,14.2-31.7,31.7Z"/>
  </g>
</svg>