<?xml version="1.0" encoding="UTF-8"?>
<svg id="Layer_1" xmlns="http://www.w3.org/2000/svg" xmlns:xlink="http://www.w3.org/1999/xlink" version="1.1" viewBox="0 0 1000 1000">
  <!-- Generator: Adobe Illustrator 30.1.0, SVG Export Plug-In . SVG Version: 2.1.1 Build 136)  -->
  <defs>
    <style>
      .st0 {
        clip-path: url(#clippath);
      }
    </style>
    <clipPath id="clippath">
      <path d="M324.9,429.1c-4.7,0-8.6-3.8-8.6-8.6v-114.7c0-4.7,3.8-8.6,8.6-8.6s8.6,3.8,8.6,8.6v114.7c0,4.7-3.8,8.6-8.6,8.6ZM382.5,393.3v-60.4c0-4.7-3.8-8.6-8.6-8.6s-8.6,3.8-8.6,8.6v60.4c0,4.7,3.8,8.6,8.6,8.6s8.6-3.8,8.6-8.6ZM431.5,451.8v-177.2c0-4.7-3.8-8.6-8.6-8.6s-8.6,3.8-8.6,8.6v177.2c0,4.7,3.8,8.6,8.6,8.6s8.6-3.8,8.6-8.6ZM480.5,508.9V217.4c0-4.7-3.8-8.6-8.6-8.6s-8.6,3.8-8.6,8.6v291.5c0,4.7,3.8,8.6,8.6,8.6s8.6-3.8,8.6-8.6ZM529.5,451.8v-177.2c0-4.7-3.8-8.6-8.6-8.6s-8.6,3.8-8.6,8.6v177.2c0,4.7,3.8,8.6,8.6,8.6s8.6-3.8,8.6-8.6ZM578.5,483.9v-168.8c0-4.7-3.8-8.6-8.6-8.6s-8.6,3.8-8.6,8.6v168.8c0,4.7,3.8,8.6,8.6,8.6s8.6-3.8,8.6-8.6ZM627.5,383v-39.7c0-4.7-3.8-8.6-8.6-8.6s-8.6,3.8-8.6,8.6v39.7c0,4.7,3.8,8.6,8.6,8.6s8.6-3.8,8.6-8.6ZM683.7,260.4v-9.4c-25.8,0-46.7-20.9-46.7-46.7h-9.4c0,25.8-20.9,46.7-46.7,46.7v9.4c25.8,0,46.7,20.9,46.7,46.7h9.4c0-25.8,20.9-46.7,46.7-46.7ZM603.2,197.2v-4.1c-11.2,0-20.2-9.1-20.2-20.2h-4.1c0,11.2-9.1,20.2-20.2,20.2v4.1c11.2,0,20.2,9.1,20.2,20.2h4.1c0-11.2,9.1-20.2,20.2-20.2Z"/>
    </clipPath>
  </defs>
  <g>
    <path d="M101.4,601.1c2.6,0,4.9.7,6.9,2.1,2,1.4,3.4,3.3,4.2,5.7l51.4,154.9h-31.5l-38.9-125.4c-.7-2.5-1.3-5-2-7.5-.7-2.5-1.2-5-1.7-7.3h-6.9c-.5,2.4-1.1,4.8-1.7,7.3-.7,2.5-1.4,5-2.2,7.5l-38.6,125.4H8.9l51.4-154.9c.7-2.4,2-4.2,4.1-5.7,2-1.4,4.4-2.1,7-2.1h30ZM129.9,694.2v23.1H42.6v-23.1h87.3Z"/>
    <path d="M225.4,645.2c5.6,0,11.6.2,18.1.5,6.5.3,12.8.7,19.1,1.3,6.2.6,11.8,1.3,16.7,2.2l-2,18.6c-7.9-.2-15.7-.4-23.5-.6-7.8-.2-15.5-.4-23-.4s-12,.2-15.9.5c-3.9.3-6.6,1.3-8.1,2.8-1.6,1.6-2.3,4.2-2.3,8s1.3,7.6,3.9,9.1c2.6,1.5,6.9,2.9,12.8,4.4l33,7.3c9.8,2.4,17.1,5.9,21.9,10.7,4.8,4.8,7.1,12.1,7.1,22s-1.8,16.9-5.5,21.8c-3.7,4.9-9.5,8.3-17.5,10.1-8,1.8-18.1,2.7-30.4,2.7s-11.8-.2-21.2-.6c-9.3-.4-19.6-1.5-30.7-3.2l2-18.6c3.3,0,7.2,0,11.7.2,4.5.2,9.3.2,14.5.2h15.9c8.7,0,15.4-.3,20-.8,4.7-.5,7.9-1.7,9.7-3.5,1.8-1.8,2.7-4.4,2.7-7.9s-1.5-7.3-4.6-8.8c-3-1.5-7.5-2.9-13.4-4.4l-32.2-7.5c-7.4-1.9-13.1-4.3-17.2-7.2-4.1-2.9-7.1-6.5-8.9-10.8-1.8-4.3-2.7-9.6-2.7-15.9s1.7-15.1,5-19.8c3.4-4.7,8.7-8,16-9.9,7.3-1.9,16.9-2.7,28.9-2.6Z"/>
    <path d="M364.1,645.2c4.1,0,8.6.2,13.5.5,4.9.3,9.9.9,15,1.9,5.1.9,9.7,2.3,13.8,4l-3.4,17.9c-6.1-.3-12.1-.5-18.1-.7-6-.2-11.2-.2-15.6-.2-8.4,0-15,1.1-19.8,3.2-4.8,2.1-8.3,5.9-10.5,11.3-2.1,5.4-3.2,13-3.2,22.7s1.1,17.3,3.2,22.7c2.1,5.4,5.6,9.2,10.5,11.4,4.8,2.2,11.4,3.3,19.8,3.3s5.7,0,9.7-.2c4-.2,8.4-.4,13-.7,4.7-.3,9.2-.7,13.7-1.2l3,18.4c-6.4,2.5-13.5,4.3-21.4,5.4-7.9,1.1-15.7,1.6-23.4,1.6-14.4,0-26-2-34.7-5.9-8.7-3.9-15-10.3-18.8-19.2-3.9-8.9-5.8-20.8-5.8-35.7s2-26.8,5.9-35.7c3.9-8.9,10.2-15.2,18.9-19.1,8.7-3.8,20.3-5.8,34.7-5.8Z"/>
    <path d="M462,648v78.3c-.2,5.8,1,10,3.6,12.5,2.5,2.5,6.7,3.8,12.4,3.8s11.5-1.2,17.2-3.5c5.7-2.4,12.7-5.9,20.9-10.6l3,17c-9.2,7.1-18,12.4-26.6,16-8.5,3.6-17.4,5.4-26.6,5.4-22.5,0-33.7-10.6-33.7-31.8v-87h29.8ZM542.9,648v115.7h-23.6l-3.2-22.4-3-3.3v-90h29.8Z"/>
    <path d="M606.4,598.7l-.2,130.1c0,4.4,1.3,7.7,3.9,10,2.6,2.3,6.4,3.4,11.3,3.4h10.6l3.4,20c-1.8.8-4.3,1.5-7.5,2.1-3.2.6-6.5,1.1-9.8,1.3-3.4.2-6.3.4-8.7.4-10,0-18-2.6-23.9-7.8-5.9-5.2-8.9-12.6-8.9-22.4v-137.2h29.8Z"/>
    <path d="M727.2,648v19.8h-87.1v-18.6l23.6-1.2h63.5ZM691.2,615v113.8c0,4.9,1.1,8.3,3.3,10.4,2.2,2,6,3.1,11.4,3.1h16.7l3.2,20c-2.8.8-6.1,1.5-10.1,2.1-3.9.6-7.8,1.1-11.6,1.3-3.8.2-7,.4-9.6.4-10.5,0-18.7-2.7-24.5-8.1-5.8-5.4-8.7-13.2-8.7-23.5v-119.5h29.8Z"/>
    <path d="M855.5,601.1c3.8,0,7.1,1,10,3.1,2.9,2,4.8,4.9,5.8,8.5l46.5,151.1h-47.2l-29.8-112.2c-.7-2.7-1.2-5.5-1.7-8.6-.5-3.1-1-5.9-1.5-8.6h-6.6c-.3,2.7-.8,5.5-1.4,8.6-.6,3.1-1.2,5.9-1.8,8.6l-29.8,112.2h-47.2l46.5-151.1c1-3.6,2.9-6.4,5.8-8.5,2.9-2,6.2-3.1,10-3.1h42.6ZM878.9,693.3v31.8h-89.3v-31.8h89.3Z"/>
    <path d="M977.3,601.1v162.6h-45.8v-162.6h45.8Z"/>
  </g>
  <g>
    <path d="M324.9,429.1c-4.7,0-8.6-3.8-8.6-8.6v-114.7c0-4.7,3.8-8.6,8.6-8.6s8.6,3.8,8.6,8.6v114.7c0,4.7-3.8,8.6-8.6,8.6ZM382.5,393.3v-60.4c0-4.7-3.8-8.6-8.6-8.6s-8.6,3.8-8.6,8.6v60.4c0,4.7,3.8,8.6,8.6,8.6s8.6-3.8,8.6-8.6ZM431.5,451.8v-177.2c0-4.7-3.8-8.6-8.6-8.6s-8.6,3.8-8.6,8.6v177.2c0,4.7,3.8,8.6,8.6,8.6s8.6-3.8,8.6-8.6ZM480.5,508.9V217.4c0-4.7-3.8-8.6-8.6-8.6s-8.6,3.8-8.6,8.6v291.5c0,4.7,3.8,8.6,8.6,8.6s8.6-3.8,8.6-8.6ZM529.5,451.8v-177.2c0-4.7-3.8-8.6-8.6-8.6s-8.6,3.8-8.6,8.6v177.2c0,4.7,3.8,8.6,8.6,8.6s8.6-3.8,8.6-8.6ZM578.5,483.9v-168.8c0-4.7-3.8-8.6-8.6-8.6s-8.6,3.8-8.6,8.6v168.8c0,4.7,3.8,8.6,8.6,8.6s8.6-3.8,8.6-8.6ZM627.5,383v-39.7c0-4.7-3.8-8.6-8.6-8.6s-8.6,3.8-8.6,8.6v39.7c0,4.7,3.8,8.6,8.6,8.6s8.6-3.8,8.6-8.6ZM683.7,260.4v-9.4c-25.8,0-46.7-20.9-46.7-46.7h-9.4c0,25.8-20.9,46.7-46.7,46.7v9.4c25.8,0,46.7,20.9,46.7,46.7h9.4c0-25.8,20.9-46.7,46.7-46.7ZM603.2,197.2v-4.1c-11.2,0-20.2-9.1-20.2-20.2h-4.1c0,11.2-9.1,20.2-20.2,20.2v4.1c11.2,0,20.2,9.1,20.2,20.2h4.1c0-11.2,9.1-20.2,20.2-20.2Z"/>
    <g class="st0">
      <rect x="316.3" y="137.8" width="367.4" height="379.7"/>
    </g>
  </g>
</svg>