<?xml version="1.0" encoding="UTF-8"?>
<svg id="Layer_1" xmlns="http://www.w3.org/2000/svg" xmlns:xlink="http://www.w3.org/1999/xlink" version="1.1" viewBox="0 0 1000 1000">
  <!-- Generator: Adobe Illustrator 30.1.0, SVG Export Plug-In . SVG Version: 2.1.1 Build 136)  -->
  <defs>
    <style>
      .st0 {
        fill: #fff;
      }

      .st1 {
        fill: #456eb4;
      }

      .st2 {
        clip-path: url(#clippath);
      }
    </style>
    <clipPath id="clippath">
      <path class="st1" d="M325.9,445.1c-4.7,0-8.5-3.8-8.5-8.5v-113.9c0-4.7,3.8-8.5,8.5-8.5s8.5,3.8,8.5,8.5v113.9c0,4.7-3.8,8.5-8.5,8.5ZM383.1,409.6v-59.9c0-4.7-3.8-8.5-8.5-8.5s-8.5,3.8-8.5,8.5v59.9c0,4.7,3.8,8.5,8.5,8.5s8.5-3.8,8.5-8.5ZM431.7,467.6v-175.9c0-4.7-3.8-8.5-8.5-8.5s-8.5,3.8-8.5,8.5v175.9c0,4.7,3.8,8.5,8.5,8.5s8.5-3.8,8.5-8.5ZM480.4,524.3V235c0-4.7-3.8-8.5-8.5-8.5s-8.5,3.8-8.5,8.5v289.3c0,4.7,3.8,8.5,8.5,8.5s8.5-3.8,8.5-8.5ZM529,467.6v-175.9c0-4.7-3.8-8.5-8.5-8.5s-8.5,3.8-8.5,8.5v175.9c0,4.7,3.8,8.5,8.5,8.5s8.5-3.8,8.5-8.5ZM577.7,499.5v-167.6c0-4.7-3.8-8.5-8.5-8.5s-8.5,3.8-8.5,8.5v167.6c0,4.7,3.8,8.5,8.5,8.5s8.5-3.8,8.5-8.5ZM626.3,399.3v-39.4c0-4.7-3.8-8.5-8.5-8.5s-8.5,3.8-8.5,8.5v39.4c0,4.7,3.8,8.5,8.5,8.5s8.5-3.8,8.5-8.5ZM682.1,277.6v-9.3c-25.6,0-46.3-20.8-46.3-46.3h-9.3c0,25.6-20.8,46.3-46.3,46.3v9.3c25.6,0,46.3,20.8,46.3,46.3h9.3c0-25.6,20.8-46.3,46.3-46.3ZM602.2,214.9v-4c-11.1,0-20.1-9-20.1-20.1h-4c0,11.1-9,20.1-20.1,20.1v4c11.1,0,20.1,9,20.1,20.1h4c0-11.1,9-20.1,20.1-20.1Z"/>
    </clipPath>
  </defs>
  <g>
    <path class="st1" d="M325.9,445.1c-4.7,0-8.5-3.8-8.5-8.5v-113.9c0-4.7,3.8-8.5,8.5-8.5s8.5,3.8,8.5,8.5v113.9c0,4.7-3.8,8.5-8.5,8.5ZM383.1,409.6v-59.9c0-4.7-3.8-8.5-8.5-8.5s-8.5,3.8-8.5,8.5v59.9c0,4.7,3.8,8.5,8.5,8.5s8.5-3.8,8.5-8.5ZM431.7,467.6v-175.9c0-4.7-3.8-8.5-8.5-8.5s-8.5,3.8-8.5,8.5v175.9c0,4.7,3.8,8.5,8.5,8.5s8.5-3.8,8.5-8.5ZM480.4,524.3V235c0-4.7-3.8-8.5-8.5-8.5s-8.5,3.8-8.5,8.5v289.3c0,4.7,3.8,8.5,8.5,8.5s8.5-3.8,8.5-8.5ZM529,467.6v-175.9c0-4.7-3.8-8.5-8.5-8.5s-8.5,3.8-8.5,8.5v175.9c0,4.7,3.8,8.5,8.5,8.5s8.5-3.8,8.5-8.5ZM577.7,499.5v-167.6c0-4.7-3.8-8.5-8.5-8.5s-8.5,3.8-8.5,8.5v167.6c0,4.7,3.8,8.5,8.5,8.5s8.5-3.8,8.5-8.5ZM626.3,399.3v-39.4c0-4.7-3.8-8.5-8.5-8.5s-8.5,3.8-8.5,8.5v39.4c0,4.7,3.8,8.5,8.5,8.5s8.5-3.8,8.5-8.5ZM682.1,277.6v-9.3c-25.6,0-46.3-20.8-46.3-46.3h-9.3c0,25.6-20.8,46.3-46.3,46.3v9.3c25.6,0,46.3,20.8,46.3,46.3h9.3c0-25.6,20.8-46.3,46.3-46.3ZM602.2,214.9v-4c-11.1,0-20.1-9-20.1-20.1h-4c0,11.1-9,20.1-20.1,20.1v4c11.1,0,20.1,9,20.1,20.1h4c0-11.1,9-20.1,20.1-20.1Z"/>
    <g class="st2">
      <rect class="st1" x="317.4" y="155.9" width="364.7" height="376.9"/>
    </g>
  </g>
  <g>
    <g>
      <path class="st0" d="M96.2,616.9c2.7,0,5,.7,7,2.2,2,1.5,3.4,3.4,4.1,5.8l42.1,131.1h-32.8l-29.7-102.2c-.6-2.3-1.1-4.6-1.7-7-.6-2.4-1.1-4.6-1.5-6.8h-5.7c-.4,2.2-.9,4.4-1.4,6.8-.5,2.4-1.1,4.7-1.8,7l-29.7,102.2H12.3l42.3-131.1c.7-2.4,2.1-4.4,4.1-5.8,2-1.5,4.4-2.2,7-2.2h30.5ZM118.5,696.1v23.2H43.2v-23.2h75.3Z"/>
      <path class="st0" d="M201.9,653.8c5,0,10.5.2,16.4.5,5.9.3,11.6.8,17.3,1.3,5.6.5,10.6,1.2,14.9,2l-2.1,18.6c-6.7-.1-13.5-.2-20.3-.3-6.8,0-13.4-.1-19.9-.1-5.5-.1-9.7,0-12.6.2-2.9.3-5,.9-6.2,1.9-1.2,1-1.8,2.8-1.8,5.3s1.1,4.9,3.2,5.9c2.1,1,5.6,2.1,10.5,3.3l27.1,6.2c8.7,2.2,15.1,5.3,19.4,9.6,4.2,4.2,6.3,10.6,6.3,19.1s-1.6,14.7-4.8,19.2c-3.2,4.4-8.3,7.5-15.4,9.2-7,1.7-16.1,2.5-27.1,2.5s-10.8-.2-19.4-.6c-8.6-.4-18-1.4-28.2-3l2.1-18.6c2.5.1,5.8.2,9.7.3,3.9,0,8.2.1,12.8.1h13.9c7.2,0,12.6-.2,16.4-.5,3.8-.3,6.4-1.1,7.8-2.3,1.4-1.2,2.1-3,2.1-5.4s-1.2-5-3.6-6c-2.4-1.1-6.2-2.2-11.4-3.4l-26.3-6.3c-6.6-1.7-11.7-4-15.4-6.7-3.6-2.7-6.2-6-7.7-9.9-1.5-3.9-2.2-8.5-2.2-13.9s1.4-12.3,4.3-16.4c2.9-4.1,7.6-7.1,14.1-9,6.5-1.9,15.2-2.8,26-2.8Z"/>
      <path class="st0" d="M322.4,653.8c3.8,0,7.9.2,12.4.5,4.5.3,9,.9,13.6,1.8,4.6.9,8.7,2.1,12.5,3.7l-3.4,18.8c-5.6-.1-11-.3-16.1-.4-5.1-.1-9.7-.2-13.8-.2-6.3,0-11.3.8-14.9,2.4-3.6,1.6-6.3,4.5-7.9,8.6-1.6,4.1-2.4,9.8-2.4,17s.8,13.2,2.4,17.3c1.6,4.2,4.2,7.1,7.9,8.7,3.6,1.6,8.6,2.4,14.9,2.4s5.1,0,8.6-.2c3.5-.1,7.3-.3,11.4-.5,4.1-.2,8.1-.6,12-1.1l2.9,19c-5.6,2.4-12,4.2-19.1,5.2-7.2,1.1-14.2,1.6-21.3,1.6-12.9,0-23.2-1.7-30.8-5.1-7.6-3.4-13.2-9-16.5-16.6-3.4-7.7-5.1-17.9-5.1-30.6s1.7-23,5.2-30.6c3.4-7.7,9-13.2,16.7-16.5,7.7-3.4,18-5,30.7-5Z"/>
      <path class="st0" d="M411.6,656.4v65.5c0,4.2.9,7.1,2.8,8.9,1.9,1.7,4.9,2.6,9.2,2.6s8.7-.8,12.9-2.3c4.3-1.5,9.6-4,15.9-7.4l2.5,16.3c-7.6,6.3-15,11-22.3,14.1-7.3,3.1-14.8,4.6-22.5,4.6-19.8,0-29.7-9.3-29.7-27.8v-74.6h31.1ZM480.4,656.4v99.6h-24.6l-3.6-19.6-2.9-2.8v-77.2h31.1Z"/>
      <path class="st0" d="M537.2,614.9l-.2,109.3c0,3.4,1.1,5.9,3.2,7.6,2.1,1.7,5.2,2.5,9.3,2.5h8.4l3.6,20.2c-1.7.8-4.1,1.5-7.2,2.1-3.1.6-6.2,1.1-9.5,1.4-3.2.3-6,.5-8.2.5-9.4,0-16.8-2.4-22.3-7.1-5.5-4.7-8.2-11.3-8.2-19.8v-116.7h31.1Z"/>
      <path class="st0" d="M641.8,656.4v19.6h-78.5v-18.6l20.2-1h58.3ZM612.8,628.8v95.4c0,3.6.9,6.2,2.6,7.8,1.8,1.5,4.7,2.3,8.7,2.3h13.5l3.4,20.2c-2.5.8-5.6,1.5-9.3,2.1-3.6.6-7.3,1.1-10.9,1.4-3.6.3-6.7.5-9.3.5-9.4,0-16.7-2.4-22-7.3-5.3-4.8-7.9-11.6-7.9-20.4l-.2-102h31.4Z"/>
      <path class="st1" d="M870.7,616.9c3.2,0,6.1.9,8.5,2.6,2.5,1.7,4.1,4.2,4.9,7.3l39.8,129.2h-40.4l-25.5-96c-.6-2.3-1.1-4.7-1.5-7.4-.4-2.6-.8-5.1-1.3-7.4h-5.7c-.3,2.3-.7,4.7-1.2,7.4-.5,2.6-1,5.1-1.6,7.4l-25.5,96h-40.4l39.8-129.2c.8-3.1,2.5-5.5,4.9-7.3,2.5-1.7,5.3-2.6,8.5-2.6h36.4ZM890.7,695.7v27.2h-76.4v-27.2h76.4Z"/>
      <path class="st1" d="M974.9,616.9v139.1h-39.1v-139.1h39.1Z"/>
    </g>
    <path class="st0" d="M720.3,756h-11.6c0-24.3-19.7-44.1-44.1-44.1v-11.6c24.3,0,44.1-19.7,44.1-44.1h11.6c0,24.3,19.7,44.1,44.1,44.1v11.6c-24.3,0-44.1,19.7-44.1,44.1Z"/>
  </g>
</svg>