<?xml version="1.0" encoding="UTF-8"?>
<svg id="Layer_1" xmlns="http://www.w3.org/2000/svg" version="1.1" viewBox="0 0 1000 1000">
  <!-- Generator: Adobe Illustrator 30.1.0, SVG Export Plug-In . SVG Version: 2.1.1 Build 136)  -->
  <defs>
    <style>
      .st0 {
        fill: #3f6fe4;
      }

      .st1 {
        fill: #fff;
      }
    </style>
  </defs>
  <g>
    <path class="st1" d="M96.5,418.4c2.3,0,4.2.6,5.9,1.8,1.7,1.2,2.9,2.8,3.6,4.9l44.3,133.4h-27.1l-33.5-108c-.6-2.2-1.1-4.3-1.7-6.5-.6-2.2-1.1-4.3-1.5-6.3h-5.9c-.4,2-.9,4.1-1.5,6.3-.6,2.2-1.2,4.3-1.9,6.5l-33.3,108h-27.1l44.3-133.4c.6-2,1.7-3.7,3.5-4.9,1.8-1.2,3.8-1.8,6-1.8h25.8ZM121.1,498.6v19.9H45.9v-19.9h75.2Z"/>
    <path class="st1" d="M203.3,456.4c4.8,0,10,.1,15.6.4,5.6.3,11,.6,16.4,1.1,5.4.5,10.2,1.1,14.4,1.9l-1.7,16c-6.8-.1-13.5-.3-20.2-.5-6.7-.2-13.3-.3-19.8-.3s-10.3.1-13.7.4c-3.3.3-5.7,1.1-7,2.4-1.3,1.4-2,3.7-2,6.9s1.1,6.5,3.4,7.8c2.3,1.3,5.9,2.5,11,3.8l28.4,6.3c8.5,2,14.8,5.1,18.9,9.2,4.1,4.1,6.1,10.5,6.1,19s-1.6,14.5-4.8,18.8c-3.2,4.3-8.2,7.2-15,8.7-6.9,1.6-15.6,2.3-26.2,2.3s-10.2-.2-18.2-.5c-8-.3-16.9-1.3-26.5-2.7l1.7-16c2.8,0,6.2,0,10.1.2,3.9.1,8.1.2,12.5.2h13.7c7.5,0,13.2-.2,17.3-.7,4-.5,6.8-1.5,8.4-3,1.6-1.6,2.3-3.8,2.3-6.8s-1.3-6.3-3.9-7.6c-2.6-1.3-6.5-2.5-11.5-3.8l-27.8-6.5c-6.4-1.6-11.3-3.7-14.8-6.2-3.5-2.5-6.1-5.6-7.6-9.3-1.6-3.7-2.3-8.3-2.3-13.7s1.4-13,4.3-17.1c2.9-4.1,7.5-6.9,13.8-8.5,6.3-1.6,14.6-2.4,24.9-2.2Z"/>
    <path class="st1" d="M322.8,456.4c3.5,0,7.4.1,11.7.4,4.2.3,8.5.8,12.9,1.6,4.4.8,8.3,2,11.9,3.5l-3,15.4c-5.2-.3-10.4-.5-15.6-.6-5.2-.1-9.6-.2-13.5-.2-7.2,0-12.9.9-17.1,2.7-4.2,1.8-7.2,5.1-9,9.7-1.8,4.7-2.8,11.2-2.8,19.6s.9,14.9,2.8,19.6c1.8,4.7,4.8,8,9,9.8,4.2,1.9,9.9,2.8,17.1,2.8s4.9,0,8.4-.2c3.5-.1,7.2-.3,11.2-.6,4-.3,7.9-.6,11.8-1l2.5,15.8c-5.5,2.2-11.7,3.7-18.4,4.7-6.8.9-13.5,1.4-20.1,1.4-12.4,0-22.4-1.7-29.9-5.1-7.5-3.4-12.9-8.9-16.2-16.5-3.3-7.6-5-17.9-5-30.8s1.7-23.1,5.1-30.8c3.4-7.6,8.8-13.1,16.3-16.4,7.5-3.3,17.4-5,29.9-5Z"/>
    <path class="st1" d="M407.1,458.8v67.4c-.1,5,.9,8.6,3.1,10.8,2.2,2.2,5.8,3.2,10.7,3.2s9.9-1,14.8-3c4.9-2,10.9-5.1,18-9.1l2.5,14.6c-7.9,6.1-15.5,10.7-22.9,13.8-7.3,3.1-15,4.7-22.9,4.7-19.4,0-29-9.1-29-27.4v-74.9h25.6ZM476.8,458.8v99.7h-20.3l-2.8-19.3-2.5-2.8v-77.6h25.6Z"/>
    <path class="st1" d="M531.5,416.4l-.2,112.1c0,3.8,1.1,6.7,3.4,8.6,2.3,2,5.5,2.9,9.7,2.9h9.1l3,17.3c-1.6.7-3.7,1.3-6.5,1.8-2.8.5-5.6.9-8.5,1.1-2.9.2-5.4.3-7.5.3-8.6,0-15.5-2.2-20.5-6.7-5.1-4.5-7.6-10.9-7.6-19.3v-118.2h25.6Z"/>
    <path class="st1" d="M635.5,458.8v17.1h-75v-16l20.3-1h54.7ZM604.6,430.4v98.1c0,4.2,1,7.2,2.9,8.9,1.9,1.8,5.2,2.6,9.9,2.6h14.4l2.8,17.3c-2.4.7-5.3,1.3-8.7,1.8-3.4.5-6.7.9-10,1.1-3.3.2-6,.3-8.3.3-9,0-16.1-2.3-21.1-7-5-4.7-7.5-11.4-7.5-20.2v-102.9h25.6Z"/>
    <path class="st0" d="M866.4,418.4c3.2,0,6.1.9,8.6,2.6,2.5,1.8,4.1,4.2,5,7.3l40,130.1h-40.7l-25.6-96.6c-.6-2.3-1.1-4.8-1.5-7.4-.4-2.6-.8-5.1-1.3-7.4h-5.7c-.3,2.3-.7,4.8-1.2,7.4-.5,2.6-1,5.1-1.6,7.4l-25.6,96.6h-40.7l40-130.1c.8-3.1,2.5-5.5,5-7.3,2.5-1.8,5.3-2.6,8.6-2.6h36.7ZM886.5,497.8v27.4h-76.9v-27.4h76.9Z"/>
    <path class="st0" d="M971.3,418.4v140.1h-39.4v-140.1h39.4Z"/>
  </g>
  <path class="st1" d="M715,558.5h-11.7c0-24.5-19.9-44.4-44.4-44.4v-11.7c24.5,0,44.4-19.9,44.4-44.4h11.7c0,24.5,19.9,44.4,44.4,44.4v11.7c-24.5,0-44.4,19.9-44.4,44.4Z"/>
</svg>