<?xml version="1.0" encoding="UTF-8"?>
<svg id="Layer_1" xmlns="http://www.w3.org/2000/svg" xmlns:xlink="http://www.w3.org/1999/xlink" version="1.1" viewBox="0 0 1000 1000">
  <!-- Generator: Adobe Illustrator 30.1.0, SVG Export Plug-In . SVG Version: 2.1.1 Build 136)  -->
  <defs>
    <style>
      .st0 {
        fill: #fff;
      }

      .st1 {
        fill: #456eb4;
      }

      .st2 {
        clip-path: url(#clippath);
      }
    </style>
    <clipPath id="clippath">
      <path class="st1" d="M43.7,572.8c-3.1,0-5.6-2.5-5.6-5.6v-74.5c0-3.1,2.5-5.6,5.6-5.6s5.6,2.5,5.6,5.6v74.5c0,3.1-2.5,5.6-5.6,5.6ZM81.1,549.5v-39.2c0-3.1-2.5-5.6-5.6-5.6s-5.6,2.5-5.6,5.6v39.2c0,3.1,2.5,5.6,5.6,5.6s5.6-2.5,5.6-5.6ZM112.9,587.5v-115.1c0-3.1-2.5-5.6-5.6-5.6s-5.6,2.5-5.6,5.6v115.1c0,3.1,2.5,5.6,5.6,5.6s5.6-2.5,5.6-5.6ZM144.7,624.6v-189.3c0-3.1-2.5-5.6-5.6-5.6s-5.6,2.5-5.6,5.6v189.3c0,3.1,2.5,5.6,5.6,5.6s5.6-2.5,5.6-5.6ZM176.6,587.5v-115.1c0-3.1-2.5-5.6-5.6-5.6s-5.6,2.5-5.6,5.6v115.1c0,3.1,2.5,5.6,5.6,5.6s5.6-2.5,5.6-5.6ZM208.4,608.4v-109.7c0-3.1-2.5-5.6-5.6-5.6s-5.6,2.5-5.6,5.6v109.7c0,3.1,2.5,5.6,5.6,5.6s5.6-2.5,5.6-5.6ZM240.3,542.8v-25.8c0-3.1-2.5-5.6-5.6-5.6s-5.6,2.5-5.6,5.6v25.8c0,3.1,2.5,5.6,5.6,5.6s5.6-2.5,5.6-5.6ZM276.8,463.2v-6.1c-16.8,0-30.3-13.6-30.3-30.3h-6.1c0,16.8-13.6,30.3-30.3,30.3v6.1c16.8,0,30.3,13.6,30.3,30.3h6.1c0-16.8,13.6-30.3,30.3-30.3ZM224.5,422.1v-2.6c-7.3,0-13.2-5.9-13.2-13.2h-2.6c0,7.3-5.9,13.2-13.2,13.2v2.6c7.3,0,13.2,5.9,13.2,13.2h2.6c0-7.3,5.9-13.2,13.2-13.2Z"/>
    </clipPath>
  </defs>
  <g>
    <path class="st0" d="M392.4,465.2c1.7,0,3.2.5,4.5,1.4,1.3.9,2.2,2.1,2.7,3.7l33.4,100.6h-20.5l-25.2-81.5c-.4-1.6-.9-3.3-1.3-4.9-.4-1.6-.8-3.2-1.1-4.7h-4.5c-.3,1.5-.7,3.1-1.1,4.7-.4,1.6-.9,3.3-1.4,4.9l-25.1,81.5h-20.5l33.4-100.6c.4-1.5,1.3-2.8,2.6-3.7,1.3-.9,2.8-1.4,4.6-1.4h19.5ZM411,525.7v15h-56.7v-15h56.7Z"/>
    <path class="st0" d="M473,493.8c3.6,0,7.5.1,11.7.3,4.2.2,8.3.5,12.4.8,4,.4,7.7.8,10.9,1.5l-1.3,12.1c-5.1-.1-10.2-.2-15.3-.4-5.1-.2-10-.2-14.9-.2s-7.8.1-10.3.3c-2.5.2-4.3.8-5.3,1.8-1,1-1.5,2.8-1.5,5.2s.9,4.9,2.6,5.9c1.7,1,4.5,1.9,8.3,2.8l21.4,4.7c6.4,1.5,11.1,3.9,14.2,7,3.1,3.1,4.6,7.9,4.6,14.3s-1.2,10.9-3.6,14.2c-2.4,3.2-6.2,5.4-11.3,6.6-5.2,1.2-11.7,1.8-19.7,1.8s-7.7-.1-13.7-.4c-6.1-.3-12.7-.9-20-2.1l1.3-12.1c2.1,0,4.7,0,7.6.2,2.9.1,6.1.2,9.4.2h10.3c5.6,0,10-.2,13-.5,3-.4,5.1-1.1,6.3-2.3,1.2-1.2,1.8-2.9,1.8-5.1s-1-4.8-3-5.7c-2-1-4.9-1.9-8.7-2.8l-20.9-4.9c-4.8-1.2-8.5-2.8-11.2-4.7-2.7-1.9-4.6-4.2-5.8-7-1.2-2.8-1.8-6.3-1.8-10.3s1.1-9.8,3.3-12.9c2.2-3.1,5.6-5.2,10.4-6.4,4.7-1.2,11-1.8,18.8-1.7Z"/>
    <path class="st0" d="M563.1,493.8c2.7,0,5.6.1,8.8.3,3.2.2,6.4.6,9.7,1.2,3.3.6,6.3,1.5,8.9,2.6l-2.2,11.6c-3.9-.2-7.9-.4-11.7-.5-3.9-.1-7.3-.2-10.1-.2-5.4,0-9.7.7-12.9,2.1-3.1,1.4-5.4,3.8-6.8,7.3-1.4,3.5-2.1,8.4-2.1,14.8s.7,11.3,2.1,14.8c1.4,3.5,3.6,6,6.8,7.4,3.1,1.4,7.4,2.1,12.9,2.1s3.7,0,6.3-.2c2.6-.1,5.4-.3,8.5-.5,3-.2,6-.5,8.9-.8l1.9,11.9c-4.2,1.6-8.8,2.8-13.9,3.5-5.1.7-10.2,1.1-15.2,1.1-9.4,0-16.9-1.3-22.5-3.8-5.6-2.6-9.7-6.7-12.2-12.5-2.5-5.8-3.8-13.5-3.8-23.2s1.3-17.4,3.8-23.2c2.6-5.8,6.7-9.9,12.3-12.4,5.6-2.5,13.2-3.8,22.5-3.8Z"/>
    <path class="st0" d="M626.7,495.7v50.8c-.1,3.8.7,6.5,2.3,8.1,1.7,1.6,4.3,2.5,8.1,2.5s7.5-.8,11.2-2.3c3.7-1.5,8.3-3.8,13.6-6.9l1.9,11c-6,4.6-11.7,8.1-17.3,10.4-5.5,2.3-11.3,3.5-17.3,3.5-14.6,0-21.9-6.9-21.9-20.7v-56.5h19.3ZM679.2,495.7v75.2h-15.3l-2.1-14.5-1.9-2.1v-58.5h19.3Z"/>
    <path class="st0" d="M720.5,463.7l-.2,84.5c0,2.9.9,5,2.6,6.5,1.7,1.5,4.2,2.2,7.4,2.2h6.9l2.2,13c-1.2.5-2.8,1-4.9,1.4-2.1.4-4.2.7-6.4.8-2.2.2-4.1.2-5.7.2-6.5,0-11.7-1.7-15.5-5.1s-5.8-8.2-5.8-14.5v-89.1h19.3Z"/>
    <path class="st0" d="M798.9,495.7v12.9h-56.6v-12.1l15.3-.8h41.2ZM775.6,474.2v74c0,3.2.7,5.4,2.2,6.7,1.4,1.3,3.9,2,7.4,2h10.9l2.1,13c-1.8.5-4,1-6.6,1.4-2.6.4-5.1.7-7.5.8-2.5.2-4.5.2-6.2.2-6.8,0-12.1-1.8-15.9-5.3-3.8-3.5-5.7-8.6-5.7-15.2v-77.6h19.3Z"/>
    <path class="st1" d="M882.3,465.2c2.4,0,4.6.7,6.5,2,1.9,1.3,3.1,3.2,3.8,5.5l30.2,98.1h-30.7l-19.3-72.9c-.4-1.7-.8-3.6-1.1-5.6-.3-2-.6-3.9-1-5.6h-4.3c-.2,1.7-.5,3.6-.9,5.6-.4,2-.8,3.9-1.2,5.6l-19.3,72.9h-30.7l30.2-98.1c.6-2.3,1.9-4.2,3.8-5.5,1.9-1.3,4-2,6.5-2h27.6ZM897.5,525.1v20.7h-58v-20.7h58Z"/>
    <path class="st1" d="M961.4,465.2v105.7h-29.7v-105.7h29.7Z"/>
  </g>
  <g>
    <path class="st1" d="M43.7,572.8c-3.1,0-5.6-2.5-5.6-5.6v-74.5c0-3.1,2.5-5.6,5.6-5.6s5.6,2.5,5.6,5.6v74.5c0,3.1-2.5,5.6-5.6,5.6ZM81.1,549.5v-39.2c0-3.1-2.5-5.6-5.6-5.6s-5.6,2.5-5.6,5.6v39.2c0,3.1,2.5,5.6,5.6,5.6s5.6-2.5,5.6-5.6ZM112.9,587.5v-115.1c0-3.1-2.5-5.6-5.6-5.6s-5.6,2.5-5.6,5.6v115.1c0,3.1,2.5,5.6,5.6,5.6s5.6-2.5,5.6-5.6ZM144.7,624.6v-189.3c0-3.1-2.5-5.6-5.6-5.6s-5.6,2.5-5.6,5.6v189.3c0,3.1,2.5,5.6,5.6,5.6s5.6-2.5,5.6-5.6ZM176.6,587.5v-115.1c0-3.1-2.5-5.6-5.6-5.6s-5.6,2.5-5.6,5.6v115.1c0,3.1,2.5,5.6,5.6,5.6s5.6-2.5,5.6-5.6ZM208.4,608.4v-109.7c0-3.1-2.5-5.6-5.6-5.6s-5.6,2.5-5.6,5.6v109.7c0,3.1,2.5,5.6,5.6,5.6s5.6-2.5,5.6-5.6ZM240.3,542.8v-25.8c0-3.1-2.5-5.6-5.6-5.6s-5.6,2.5-5.6,5.6v25.8c0,3.1,2.5,5.6,5.6,5.6s5.6-2.5,5.6-5.6ZM276.8,463.2v-6.1c-16.8,0-30.3-13.6-30.3-30.3h-6.1c0,16.8-13.6,30.3-30.3,30.3v6.1c16.8,0,30.3,13.6,30.3,30.3h6.1c0-16.8,13.6-30.3,30.3-30.3ZM224.5,422.1v-2.6c-7.3,0-13.2-5.9-13.2-13.2h-2.6c0,7.3-5.9,13.2-13.2,13.2v2.6c7.3,0,13.2,5.9,13.2,13.2h2.6c0-7.3,5.9-13.2,13.2-13.2Z"/>
    <g class="st2">
      <rect class="st1" x="38.1" y="383.5" width="238.7" height="246.6"/>
    </g>
  </g>
</svg>