<?xml version="1.0" encoding="UTF-8"?>
<svg id="Layer_1" xmlns="http://www.w3.org/2000/svg" version="1.1" viewBox="0 0 500 500">
  <!-- Generator: Adobe Illustrator 30.0.0, SVG Export Plug-In . SVG Version: 2.1.1 Build 123)  -->
  <path d="M114.4,203.6h62v14.7h-42.7v22.7h37v14.5h-37v25.4h43.4v14.7h-62.6v-92Z"/>
  <path d="M190.7,203.6h19.5v92h-19.5v-92Z"/>
  <path d="M229.5,203.6h35.1c10.7,0,18.9,2.6,24.7,7.7,5.8,5.1,8.7,12.5,8.7,22.1s-2.9,16.9-8.6,22.1c-5.8,5.2-14,7.8-24.7,7.8h-15.7v32.3h-19.4v-92ZM262.8,248.9c5.9,0,10.1-1.4,12.3-4.1,2.3-2.7,3.4-6.5,3.4-11.4s-1.1-8.5-3.4-11.2c-2.3-2.7-6.4-4-12.3-4h-13.9v30.7h13.9Z"/>
  <path d="M310.8,203.6h30.9c12.3,0,22.7,3.8,31.1,11.3,8.4,7.6,12.5,18.2,12.5,31.8v5.8c0,13.6-4.2,24.2-12.5,31.8-8.4,7.6-18.7,11.4-31.1,11.4h-30.9v-92ZM341.4,281.2c7.2,0,13-2.4,17.4-7.1,4.4-4.8,6.7-11.8,6.7-21.1v-6.6c0-9.3-2.2-16.3-6.7-21.1-4.4-4.7-10.3-7.1-17.4-7.1h-11.3v63h11.3Z"/>
</svg>