<?xml version="1.0" encoding="UTF-8"?>
<svg id="Layer_1" xmlns="http://www.w3.org/2000/svg" version="1.1" viewBox="0 0 500 500">
  <!-- Generator: Adobe Illustrator 30.0.0, SVG Export Plug-In . SVG Version: 2.1.1 Build 123)  -->
  <path d="M116.2,277.9c-2.4,0-4.2-.6-5.4-1.9-1.2-1.2-1.8-3.1-1.8-5.7v-21.9c0-2.5.6-4.4,1.8-5.7,1.2-1.3,3-1.9,5.4-1.9h28.9c2.4,0,4.2.6,5.4,1.9,1.2,1.2,1.8,3.1,1.8,5.7v21.9c0,2.6-.6,4.5-1.8,5.7-1.2,1.3-3,1.9-5.4,1.9h-28.9ZM114.8,243.6v-9.6c0-3.6.7-6.6,2.2-9.1,1.4-2.5,3.3-4.4,5.7-5.7,2.4-1.3,5-2,7.9-2s5.5.7,7.9,2c2.4,1.3,4.3,3.2,5.7,5.7,1.5,2.5,2.2,5.5,2.2,9.1v9.6h-6.8v-10c0-2.1-.4-3.9-1.2-5.3-.8-1.5-1.9-2.6-3.3-3.3-1.4-.8-2.9-1.2-4.5-1.2s-3.2.4-4.6,1.2c-1.4.8-2.5,1.9-3.3,3.3-.8,1.5-1.2,3.3-1.2,5.3v10h-6.8Z"/>
  <path d="M122.7,203.4c-.4-.3-.6-.7-.7-1.2,0-.5,0-1.1.2-1.7l3-8.9-7.7-5.5c-.6-.4-1-.8-1.2-1.3-.2-.5-.3-.9,0-1.4.2-.5.5-.8.9-1.1.5-.2,1-.3,1.7-.3h9.4c0,0,2.8-8.9,2.8-8.9.2-.7.5-1.2.9-1.5.4-.4.8-.5,1.3-.5s1,.2,1.3.5c.4.3.6.9.9,1.5l2.9,9h9.4c.7,0,1.3,0,1.7.3.5.2.8.6.9,1.1.2.5.1,1,0,1.4-.2.5-.6.9-1.2,1.3l-7.7,5.5,3,8.9c.2.6.3,1.2.2,1.7,0,.5-.3.9-.7,1.2-.4.3-.9.4-1.4.3-.5,0-1-.3-1.6-.7l-7.6-5.6-7.6,5.6c-.6.4-1.1.7-1.6.7-.5,0-.9,0-1.4-.3Z"/>
  <path d="M83.6,216.2c-.4-.3-.6-.7-.7-1.2,0-.5,0-1.1.2-1.7l3-8.9-7.7-5.5c-.6-.4-1-.8-1.2-1.3-.2-.5-.3-.9,0-1.4.2-.5.5-.8.9-1.1.5-.2,1-.3,1.7-.3h9.4c0,0,2.9-8.9,2.9-8.9.2-.7.5-1.2.9-1.5.4-.4.8-.5,1.3-.5s1,.2,1.3.5c.4.3.6.9.9,1.5l2.9,9h9.4c.7,0,1.3,0,1.7.3.5.2.8.6.9,1.1.2.5.1,1,0,1.4-.2.5-.6.9-1.2,1.3l-7.7,5.5,3,8.9c.2.6.3,1.2.2,1.7,0,.5-.3.9-.7,1.2-.4.3-.9.4-1.4.3-.5,0-1-.3-1.6-.7l-7.6-5.6-7.6,5.6c-.6.4-1.1.7-1.6.7-.5,0-.9,0-1.4-.3Z"/>
  <path d="M160.6,216.2c-.4-.3-.6-.7-.7-1.2,0-.5,0-1.1.2-1.7l3-8.9-7.7-5.5c-.6-.4-1-.8-1.2-1.3-.2-.5-.3-.9,0-1.4.2-.5.5-.8.9-1.1.5-.2,1-.3,1.7-.3h9.4c0,0,2.8-8.9,2.8-8.9.2-.7.5-1.2.9-1.5.4-.4.8-.5,1.3-.5s1,.2,1.3.5c.4.3.6.9.9,1.5l2.9,9h9.4c.7,0,1.3,0,1.7.3.5.2.8.6.9,1.1.2.5.1,1,0,1.4-.2.5-.6.9-1.2,1.3l-7.7,5.5,3,8.9c.2.6.3,1.2.2,1.7,0,.5-.3.9-.7,1.2-.4.3-.9.4-1.4.3-.5,0-1-.3-1.6-.7l-7.6-5.6-7.6,5.6c-.6.4-1.1.7-1.6.7-.5,0-.9,0-1.4-.3Z"/>
  <path d="M181.9,245.5c-.4-.3-.6-.7-.7-1.2,0-.5,0-1.1.2-1.7l3-8.9-7.7-5.5c-.6-.4-1-.8-1.2-1.3-.2-.5-.3-.9,0-1.4.2-.5.5-.8.9-1.1.5-.2,1-.3,1.7-.3h9.4c0,0,2.9-8.9,2.9-8.9.2-.7.5-1.2.9-1.5.4-.4.8-.5,1.3-.5s1,.2,1.3.5c.4.3.6.9.9,1.5l2.9,9h9.4c.7,0,1.3,0,1.7.3.5.2.8.6.9,1.1.2.5.1,1,0,1.4-.2.5-.6.9-1.2,1.3l-7.7,5.5,3,8.9c.2.6.3,1.2.2,1.7,0,.5-.3.9-.7,1.2-.4.3-.9.4-1.4.3-.5,0-1-.3-1.6-.7l-7.6-5.6-7.6,5.6c-.6.4-1.1.7-1.6.7-.5,0-.9,0-1.4-.3Z"/>
  <path d="M62.2,245.5c-.4-.3-.6-.7-.7-1.2,0-.5,0-1.1.2-1.7l3-8.9-7.7-5.5c-.6-.4-1-.8-1.2-1.3-.2-.5-.3-.9,0-1.4.2-.5.5-.8.9-1.1.5-.2,1-.3,1.7-.3h9.4c0,0,2.8-8.9,2.8-8.9.2-.7.5-1.2.9-1.5.4-.4.8-.5,1.3-.5s1,.2,1.3.5c.4.3.6.9.9,1.5l2.9,9h9.4c.7,0,1.3,0,1.7.3.5.2.8.6.9,1.1.2.5.1,1,0,1.4-.2.5-.6.9-1.2,1.3l-7.7,5.5,3,8.9c.2.6.3,1.2.2,1.7,0,.5-.3.9-.7,1.2-.4.3-.9.4-1.4.3-.5,0-1-.3-1.6-.7l-7.6-5.6-7.6,5.6c-.6.4-1.1.7-1.6.7-.5,0-.9,0-1.4-.3Z"/>
  <path d="M83.5,311.1c-.4-.3-.6-.7-.7-1.2,0-.5,0-1.1.2-1.7l3-8.9-7.7-5.5c-.6-.4-1-.8-1.2-1.3-.2-.5-.3-.9,0-1.4.2-.5.5-.8.9-1.1.5-.2,1-.3,1.7-.3h9.4c0,0,2.9-8.9,2.9-8.9.2-.7.5-1.2.9-1.5.4-.4.8-.5,1.3-.5s1,.2,1.3.5c.4.3.6.9.9,1.5l2.9,9h9.4c.7,0,1.3,0,1.7.3.5.2.8.6.9,1.1.2.5.1,1,0,1.4-.2.5-.6.9-1.2,1.3l-7.7,5.5,3,8.9c.2.6.3,1.2.2,1.7,0,.5-.3.9-.7,1.2-.4.3-.9.4-1.4.3-.5,0-1-.3-1.6-.7l-7.6-5.6-7.6,5.6c-.6.4-1.1.7-1.6.7-.5,0-.9,0-1.4-.3Z"/>
  <path d="M160.6,311.1c-.4-.3-.6-.7-.7-1.2,0-.5,0-1.1.2-1.7l3-8.9-7.7-5.5c-.6-.4-1-.8-1.2-1.3-.2-.5-.3-.9,0-1.4.2-.5.5-.8.9-1.1.5-.2,1-.3,1.7-.3h9.4c0,0,2.9-8.9,2.9-8.9.2-.7.5-1.2.9-1.5.4-.4.8-.5,1.3-.5s1,.2,1.3.5c.4.3.6.9.9,1.5l2.9,9h9.4c.7,0,1.3,0,1.7.3.5.2.8.6.9,1.1.2.5.1,1,0,1.4-.2.5-.6.9-1.2,1.3l-7.7,5.5,3,8.9c.2.6.3,1.2.2,1.7,0,.5-.3.9-.7,1.2-.4.3-.9.4-1.4.3-.5,0-1-.3-1.6-.7l-7.6-5.6-7.6,5.6c-.6.4-1.1.7-1.6.7-.5,0-1,0-1.4-.3Z"/>
  <path d="M122.7,327.9c-.4-.3-.6-.7-.7-1.2,0-.5,0-1.1.2-1.7l3-8.9-7.7-5.5c-.6-.4-1-.8-1.2-1.3-.2-.5-.3-.9,0-1.4.2-.5.5-.8.9-1.1.5-.2,1-.3,1.7-.3h9.4c0,0,2.8-8.9,2.8-8.9.2-.7.5-1.2.9-1.5.4-.4.8-.5,1.3-.5s1,.2,1.3.5c.4.3.6.9.9,1.5l2.9,9h9.4c.7,0,1.3,0,1.7.3.5.2.8.6.9,1.1.2.5.1,1,0,1.4-.2.5-.6.9-1.2,1.3l-7.7,5.5,3,8.9c.2.6.3,1.2.2,1.7,0,.5-.3.9-.7,1.2-.4.3-.9.4-1.4.3-.5,0-1-.3-1.6-.7l-7.6-5.6-7.6,5.6c-.6.4-1.1.7-1.6.7-.5,0-.9,0-1.4-.3Z"/>
  <path d="M181.9,281.8c-.4-.3-.6-.7-.7-1.2,0-.5,0-1.1.2-1.7l3-8.9-7.7-5.5c-.6-.4-1-.8-1.2-1.3-.2-.5-.3-.9,0-1.4.2-.5.5-.8.9-1.1.5-.2,1-.3,1.7-.3h9.4c0,0,2.9-8.9,2.9-8.9.2-.7.5-1.2.9-1.5.4-.4.8-.5,1.3-.5s1,.2,1.3.5c.4.3.6.9.9,1.5l2.9,9h9.4c.7,0,1.3,0,1.7.3.5.2.8.6.9,1.1.2.5.1,1,0,1.4-.2.5-.6.9-1.2,1.3l-7.7,5.5,3,8.9c.2.6.3,1.2.2,1.7,0,.5-.3.9-.7,1.2-.4.3-.9.4-1.4.3-.5,0-1-.3-1.6-.7l-7.6-5.6-7.6,5.6c-.6.4-1.1.7-1.6.7-.5,0-.9,0-1.4-.3Z"/>
  <path d="M62.2,281.8c-.4-.3-.6-.7-.7-1.2,0-.5,0-1.1.2-1.7l3-8.9-7.7-5.5c-.6-.4-1-.8-1.2-1.3-.2-.5-.3-.9,0-1.4.2-.5.5-.8.9-1.1.5-.2,1-.3,1.7-.3h9.4c0,0,2.8-8.9,2.8-8.9.2-.7.5-1.2.9-1.5s.8-.5,1.3-.5,1,.2,1.3.5c.4.3.6.9.9,1.5l2.9,9h9.4c.7,0,1.3,0,1.7.3.5.2.8.6.9,1.1.2.5.1,1,0,1.4-.2.5-.6.9-1.2,1.3l-7.7,5.5,3,8.9c.2.6.3,1.2.2,1.7,0,.5-.3.9-.7,1.2-.4.3-.9.4-1.4.3-.5,0-1-.3-1.6-.7l-7.6-5.6-7.6,5.6c-.6.4-1.1.7-1.6.7-.5,0-.9,0-1.4-.3Z"/>
  <path d="M271.1,222.7c-.2-.8-.6-1.4-1-2-.4-.6-.9-1.1-1.5-1.6-.6-.4-1.2-.8-1.9-1-.7-.2-1.5-.3-2.4-.3-1.5,0-2.9.4-4.1,1.2-1.2.8-2.2,1.9-2.8,3.4-.7,1.5-1,3.3-1,5.5s.3,4,1,5.5c.7,1.5,1.6,2.6,2.8,3.4,1.2.8,2.6,1.2,4.2,1.2s2.7-.3,3.8-.8c1.1-.6,1.9-1.4,2.5-2.4.6-1,.9-2.2.9-3.6l1.2.2h-7.8v-4.1h11.6v3.4c0,2.5-.5,4.6-1.6,6.4-1,1.8-2.5,3.2-4.3,4.1-1.8,1-3.9,1.4-6.3,1.4s-5-.6-7-1.8c-2-1.2-3.5-2.9-4.7-5.1-1.1-2.2-1.7-4.8-1.7-7.8s.3-4.4,1-6.2c.7-1.8,1.6-3.4,2.8-4.6,1.2-1.3,2.6-2.2,4.2-2.9,1.6-.7,3.3-1,5.2-1s3.1.2,4.4.7c1.4.5,2.6,1.1,3.7,2,1.1.8,2,1.9,2.6,3,.7,1.2,1.1,2.5,1.4,3.9h-5.3ZM291.4,242.2h-9.7v-28.7h9.9c2.8,0,5.3.6,7.3,1.7,2.1,1.1,3.6,2.8,4.7,4.9,1.1,2.1,1.7,4.7,1.7,7.7s-.6,5.6-1.7,7.7c-1.1,2.1-2.7,3.8-4.8,4.9-2.1,1.1-4.6,1.7-7.5,1.7ZM286.8,237.7h4.3c2,0,3.7-.4,5-1.1,1.3-.7,2.3-1.8,3-3.3.7-1.5,1-3.3,1-5.5s-.3-4-1-5.5c-.7-1.5-1.7-2.5-3-3.3-1.3-.7-2.9-1.1-4.9-1.1h-4.4v19.7ZM310.2,242.2v-28.7h10.7c2.2,0,4,.4,5.5,1.2,1.5.8,2.6,2,3.4,3.4.8,1.4,1.2,3.1,1.2,4.9s-.4,3.5-1.2,4.9c-.8,1.4-1.9,2.6-3.4,3.4-1.5.8-3.4,1.2-5.6,1.2h-7.1v-4.3h6.4c1.3,0,2.3-.2,3.2-.7.8-.4,1.4-1.1,1.8-1.8.4-.8.6-1.7.6-2.7s-.2-1.9-.6-2.7c-.4-.8-1-1.4-1.8-1.8-.8-.4-1.9-.7-3.2-.7h-4.8v24.3h-5.2ZM335.6,242.2v-28.7h10.7c2.2,0,4,.4,5.5,1.1,1.5.8,2.6,1.8,3.4,3.2.8,1.4,1.2,3,1.2,4.8s-.4,3.4-1.2,4.8c-.8,1.3-1.9,2.4-3.4,3.1-1.5.7-3.4,1.1-5.6,1.1h-7.7v-4.3h7c1.3,0,2.3-.2,3.2-.5.8-.4,1.4-.9,1.8-1.6.4-.7.6-1.6.6-2.6s-.2-1.9-.6-2.6c-.4-.7-1-1.3-1.8-1.7-.8-.4-1.9-.6-3.2-.6h-4.8v24.3h-5.2ZM350.4,229.2l7.1,13h-5.8l-7-13h5.7Z"/>
  <path d="M277.2,267.6h-5.2c-.1-.9-.4-1.6-.8-2.3-.4-.7-.9-1.2-1.5-1.7-.6-.5-1.3-.8-2-1-.8-.2-1.6-.4-2.4-.4-1.6,0-2.9.4-4.1,1.2-1.2.8-2.1,1.9-2.8,3.4-.7,1.5-1,3.3-1,5.5s.3,4,1,5.5c.7,1.5,1.6,2.6,2.8,3.4,1.2.8,2.6,1.1,4.1,1.1s1.7-.1,2.4-.3c.8-.2,1.4-.6,2-1,.6-.4,1.1-1,1.5-1.7.4-.7.7-1.4.9-2.2h5.2c-.2,1.4-.6,2.7-1.3,3.9-.6,1.2-1.5,2.2-2.5,3.2-1,.9-2.3,1.6-3.7,2.1-1.4.5-3,.8-4.7.8-2.5,0-4.8-.6-6.7-1.7-2-1.2-3.5-2.9-4.7-5.1-1.1-2.2-1.7-4.8-1.7-7.9s.6-5.7,1.7-7.9c1.1-2.2,2.7-3.9,4.7-5.1,2-1.2,4.2-1.7,6.7-1.7s3.1.2,4.5.7,2.6,1.1,3.7,2c1.1.9,2,1.9,2.6,3.2.7,1.2,1.2,2.7,1.4,4.3ZM291.2,287c-2.1,0-3.9-.5-5.5-1.4-1.5-.9-2.7-2.2-3.6-3.9-.8-1.7-1.3-3.6-1.3-5.8s.4-4.2,1.3-5.8c.8-1.7,2-3,3.6-3.9,1.5-.9,3.4-1.4,5.5-1.4s3.9.5,5.5,1.4c1.5.9,2.7,2.2,3.6,3.9.8,1.7,1.3,3.6,1.3,5.8s-.4,4.2-1.3,5.8c-.8,1.7-2,3-3.6,3.9-1.5.9-3.4,1.4-5.5,1.4ZM291.2,282.9c1.1,0,2.1-.3,2.9-.9.8-.6,1.3-1.5,1.7-2.5.4-1.1.6-2.2.6-3.6s-.2-2.5-.6-3.6c-.4-1.1-.9-1.9-1.7-2.6-.8-.6-1.7-1-2.9-1s-2.1.3-2.9,1c-.8.6-1.3,1.5-1.7,2.6-.4,1.1-.6,2.3-.6,3.6s.2,2.5.6,3.6c.4,1.1,1,1.9,1.7,2.5.8.6,1.7.9,2.9.9ZM305.8,286.6v-21.5h4.8v3.7h.3c.4-1.2,1.2-2.2,2.2-2.9,1-.7,2.3-1,3.7-1s2.7.4,3.7,1.1c1,.7,1.7,1.7,2.1,2.9h.2c.5-1.2,1.3-2.1,2.4-2.9,1.1-.7,2.5-1.1,4-1.1s3.6.6,4.8,1.9c1.3,1.3,1.9,3.1,1.9,5.5v14.4h-5.1v-13.6c0-1.3-.4-2.3-1.1-2.9-.7-.6-1.6-.9-2.6-.9s-2.2.4-2.9,1.1c-.7.8-1,1.7-1,3v13.4h-5v-13.9c0-1.1-.3-2-1-2.7-.7-.7-1.5-1-2.6-1s-1.4.2-2,.6c-.6.4-1.1.9-1.4,1.6-.4.7-.5,1.4-.5,2.3v13.1h-5.1ZM341.1,294.6v-29.6h5v3.6h.3c.3-.5.6-1.1,1.1-1.7.5-.6,1.1-1.1,1.9-1.5.8-.4,1.8-.6,3.1-.6s3.2.4,4.5,1.3c1.3.8,2.4,2.1,3.2,3.7.8,1.6,1.2,3.7,1.2,6s-.4,4.4-1.2,6c-.8,1.7-1.8,2.9-3.2,3.8-1.3.9-2.8,1.3-4.5,1.3s-2.3-.2-3.1-.6c-.8-.4-1.5-.9-2-1.5-.5-.6-.9-1.1-1.1-1.7h-.2v11.4h-5.1ZM346.1,275.8c0,1.4.2,2.6.6,3.7.4,1,1,1.9,1.7,2.4.8.6,1.7.9,2.7.9s2.1-.3,2.8-.9c.8-.6,1.3-1.4,1.7-2.5.4-1.1.6-2.3.6-3.6s-.2-2.5-.6-3.6c-.4-1-1-1.8-1.7-2.4-.8-.6-1.7-.9-2.8-.9s-2,.3-2.8.9c-.8.6-1.3,1.4-1.7,2.4-.4,1-.6,2.2-.6,3.6ZM370.8,257.9v28.7h-5.1v-28.7h5.1ZM376,286.6v-21.5h5.1v21.5h-5.1ZM378.6,262c-.8,0-1.5-.3-2.1-.8-.6-.5-.9-1.2-.9-1.9s.3-1.4.9-1.9c.6-.5,1.3-.8,2.1-.8s1.5.3,2.1.8c.6.5.9,1.2.9,1.9s-.3,1.4-.9,1.9c-.6.5-1.3.8-2.1.8ZM392.5,287c-1.4,0-2.6-.2-3.7-.7-1.1-.5-1.9-1.2-2.6-2.2-.6-1-.9-2.1-.9-3.6s.2-2.2.7-3c.4-.8,1.1-1.4,1.8-1.9.8-.5,1.6-.8,2.6-1.1,1-.3,2-.4,3-.5,1.3-.1,2.3-.2,3.1-.4.8-.1,1.4-.3,1.7-.5.4-.2.5-.6.5-1.1h0c0-1.1-.3-2-.9-2.5-.6-.6-1.5-.9-2.7-.9s-2.2.3-3,.8c-.7.5-1.2,1.2-1.5,1.9l-4.7-.7c.4-1.3,1-2.4,1.8-3.3.9-.9,1.9-1.5,3.1-2,1.2-.4,2.6-.7,4.1-.7s2.1.1,3.1.4c1,.2,2,.6,2.8,1.2.8.6,1.5,1.3,2,2.3.5,1,.8,2.1.8,3.6v14.4h-4.9v-3h-.2c-.3.6-.7,1.2-1.3,1.7-.6.5-1.2.9-2.1,1.2-.8.3-1.8.5-2.9.5ZM393.8,283.3c1,0,1.9-.2,2.6-.6.7-.4,1.3-1,1.7-1.6.4-.7.6-1.4.6-2.2v-2.5c-.2.1-.4.3-.8.4-.4.1-.8.2-1.3.3-.5,0-.9.2-1.4.2-.5,0-.9.1-1.2.2-.8.1-1.4.3-2,.5-.6.2-1.1.6-1.4,1-.3.4-.5.9-.5,1.6,0,.9.3,1.6,1,2.1.7.5,1.5.7,2.6.7ZM414,274v12.6h-5.1v-21.5h4.8v3.7h.3c.5-1.2,1.3-2.2,2.4-2.9,1.1-.7,2.4-1.1,4-1.1s2.8.3,3.9,1c1.1.6,2,1.6,2.6,2.8.6,1.2.9,2.7.9,4.4v13.7h-5.1v-12.9c0-1.4-.4-2.6-1.1-3.4-.7-.8-1.8-1.2-3.1-1.2s-1.7.2-2.4.6c-.7.4-1.2.9-1.6,1.7-.4.7-.6,1.6-.6,2.6ZM443.7,265.1v3.9h-12.4v-3.9h12.4ZM434.4,259.9h5.1v20.2c0,.7.1,1.2.3,1.6.2.4.5.6.8.7.3.1.7.2,1.1.2s.6,0,.9,0c.3,0,.5,0,.6-.1l.9,4c-.3,0-.7.2-1.2.3-.5.1-1.1.2-1.8.2-1.3,0-2.4-.2-3.4-.6-1-.4-1.8-1.1-2.4-2-.6-.9-.9-2-.9-3.4v-21Z"/>
</svg>