<?xml version="1.0" encoding="UTF-8"?>
<svg id="Layer_1" xmlns="http://www.w3.org/2000/svg" version="1.1" viewBox="0 0 500 500">
  <!-- Generator: Adobe Illustrator 30.0.0, SVG Export Plug-In . SVG Version: 2.1.1 Build 123)  -->
  <path d="M188.8,282.2c-4.3,9.6-10.1,18.1-17.5,25.5-7.6,7.6-16.3,13.5-26.3,17.8-9.9,4.3-20.5,6.5-31.7,6.5s-21.9-2.2-31.9-6.5c-9.9-4.3-18.6-10.2-26.2-17.8-7.4-7.4-13.2-15.9-17.5-25.5h8.2c3,6,6.6,11.5,10.9,16.4,3.6-2.7,8-5,13-7,2.5-1,5.1-1.9,7.9-2.8-.6-2.1-1.1-4.2-1.6-6.5,0,0,0-.1,0-.2h7.9c.4,1.6.8,3.2,1.2,4.7,1.5-.3,3.1-.7,4.7-1,6.3-1.1,12.9-1.8,19.9-2v-1.8h7.3v1.8c7,.2,13.6.8,19.9,2,1.6.3,3.1.6,4.6.9.4-1.5.8-3.1,1.2-4.7h7.9c0,0,0,.1,0,.2-.5,2.2-1,4.4-1.6,6.5,2.8.8,5.4,1.8,8,2.8,5.1,2,9.4,4.3,13,7,4.4-5,8-10.4,10.9-16.4h8.1ZM146.8,295.5c-1.5,4.4-3.3,8.4-5.2,12-3.4,6.4-7.2,11.4-11.5,15.1,4.2-1,8.3-2.3,12.2-4,8.5-3.6,16.1-8.6,22.7-14.9-4.9-3.4-11-6.1-18.1-8.2ZM79.8,295.5c-7.1,2.1-13.2,4.8-18.1,8.2,6.6,6.3,14.2,11.2,22.6,14.9,4,1.7,8,3.1,12.2,4-4.3-3.7-8.2-8.8-11.6-15.1-1.9-3.6-3.7-7.6-5.2-12ZM116.9,322.6c3.1-.8,6-2.6,8.9-5.4,4-3.9,7.5-9.2,10.5-16,1.1-2.4,2.1-4.9,3-7.5-6.8-1.4-14.2-2.2-22.4-2.4v31.3ZM109.6,291.3c-8.2.2-15.6,1-22.4,2.4.9,2.6,1.9,5.1,2.9,7.5,3.1,6.8,6.6,12.1,10.6,16,2.9,2.8,5.8,4.6,8.9,5.4v-31.3ZM113.2,167.3c11.3,0,21.9,2.1,31.8,6.4,10,4.3,18.7,10.2,26.3,17.8,7.4,7.4,13.2,15.9,17.5,25.5h-8.1c-2.9-5.9-6.4-11.3-10.7-16.2-3.6,2.7-8,5.1-13.1,7.2-2.5,1-5.2,1.9-7.9,2.8.6,2,1.1,4.1,1.6,6.2h-7.7c-.3-1.5-.7-2.9-1.1-4.3-1.5.3-3.1.7-4.8,1-6.3,1.1-13,1.7-19.9,1.9v1.5h-7.3v-1.5c-7-.2-13.6-.8-19.9-1.9-1.7-.3-3.3-.6-4.9-1-.4,1.4-.7,2.9-1.1,4.4h-7.7c.5-2.1,1-4.2,1.6-6.2-2.8-.8-5.4-1.7-7.9-2.7-5.2-2.1-9.6-4.5-13.2-7.2-4.2,4.9-7.8,10.3-10.7,16.2h-8.2c4.2-9.6,10-18.2,17.4-25.5,7.6-7.6,16.4-13.6,26.3-17.8,10-4.3,20.6-6.4,31.8-6.4ZM109.6,176.9c-3.1.8-6,2.5-8.9,5.3-4,3.7-7.5,9-10.6,15.7-1.2,2.6-2.2,5.3-3.2,8.1,6.9,1.4,14.4,2.2,22.7,2.4v-31.5ZM116.9,208.4c8.3-.2,15.8-1,22.7-2.4-1-2.9-2.1-5.6-3.2-8.1-3-6.7-6.6-12-10.5-15.7-2.8-2.8-5.8-4.5-8.9-5.3v31.5ZM97.1,176.4c-4.4,1-8.7,2.4-12.8,4.2-8.6,3.7-16.2,8.7-22.9,15.2,5,3.5,11.1,6.3,18.3,8.5,1.5-4.4,3.3-8.5,5.3-12.2,3.5-6.7,7.6-11.9,12.1-15.7ZM129.4,176.4c4.5,3.8,8.6,9,12.1,15.7,2,3.7,3.7,7.7,5.3,12.1,7.2-2.1,13.3-5,18.3-8.4-6.7-6.4-14.3-11.5-22.9-15.2-4.1-1.8-8.4-3.2-12.8-4.2Z"/>
  <path d="M44.3,274v-9.5l3.6-.9c1.1-.2,1.6-.7,1.6-1.7v-32.5c0-1-.6-1.5-1.6-1.7l-3.6-.9v-9.5h29.2v9.5l-3.6.9c-1.1.2-1.5.7-1.5,1.7v32.5c0,1,.5,1.5,1.5,1.7l3.6.9v9.5h-29.2ZM94.2,255.4c0,6.1,3.1,9.4,8.6,9.4s6.8-1.9,6.8-5.3-4.8-6.1-12.3-8.7c-6.5-2.3-16.8-5.8-16.8-17.6s11.6-16.9,21.9-16.9,11.8,2.7,13.6,2.7,2.1-.9,2.3-1.4h7.5v16.7h-13.1c-1.2-5.3-3.4-7.6-7.6-7.6s-5.7,1.5-5.7,4.7,3.4,5.1,10.3,7.3c9.8,3.2,19.6,5.9,19.6,18s-9.5,18.7-24.2,18.7-10.4-2.5-13.4-2.5-1.9.4-2.3,1.2h-9.4v-18.7h14.2ZM165.1,275.3c-19.4,0-30.5-12-30.5-29.6s11.2-29.6,30.5-29.6,30.5,12,30.5,29.6-11.2,29.6-30.5,29.6ZM165.1,228.8c-6.7,0-10.6,4.1-10.6,17.1s3.9,16.7,10.6,16.7,10.5-3.8,10.5-16.7-3.8-17.1-10.5-17.1Z"/>
  <path d="M241.2,241.7v-4l10.7-10.5c1-1,1.9-2,2.6-2.8.7-.8,1.2-1.6,1.5-2.3.3-.8.5-1.6.5-2.4s-.2-1.8-.7-2.5c-.4-.7-1-1.2-1.8-1.6-.8-.4-1.7-.6-2.6-.6s-1.9.2-2.7.6c-.8.4-1.4,1-1.8,1.8-.4.8-.6,1.7-.6,2.7h-5.3c0-2,.4-3.7,1.3-5.1.9-1.4,2.1-2.6,3.7-3.4,1.6-.8,3.4-1.2,5.4-1.2s3.9.4,5.4,1.2c1.6.8,2.8,1.8,3.6,3.2.9,1.3,1.3,2.9,1.3,4.6s-.2,2.3-.7,3.4c-.4,1.1-1.2,2.3-2.3,3.7-1.1,1.4-2.7,3-4.7,4.9l-5.3,5.4v.2h13.4v4.7h-21.1ZM268.6,241.7l13.1-25.9v-.2h-15.2v-4.7h21v4.8l-13.1,26h-5.8ZM303.1,242.3c-2.5,0-4.6-.6-6.4-1.9-1.8-1.3-3.1-3.1-4.1-5.5-.9-2.4-1.4-5.3-1.4-8.6,0-3.4.5-6.2,1.4-8.6,1-2.4,2.3-4.2,4.1-5.4,1.8-1.2,3.9-1.9,6.4-1.9s4.6.6,6.4,1.9c1.8,1.2,3.1,3.1,4.1,5.4,1,2.4,1.4,5.2,1.4,8.6s-.5,6.2-1.4,8.6c-.9,2.4-2.3,4.2-4.1,5.4-1.8,1.3-3.9,1.9-6.4,1.9ZM303.1,237.5c1.9,0,3.4-.9,4.6-2.8,1.1-1.9,1.7-4.7,1.7-8.4s-.3-4.5-.8-6.2c-.5-1.7-1.2-2.9-2.2-3.8-.9-.9-2-1.3-3.3-1.3-1.9,0-3.4,1-4.5,2.9-1.1,1.9-1.7,4.7-1.7,8.4,0,2.5.2,4.5.7,6.2.5,1.7,1.2,2.9,2.2,3.8.9.8,2,1.3,3.3,1.3ZM331.4,242.3c-2.5,0-4.6-.6-6.4-1.9-1.8-1.3-3.1-3.1-4.1-5.5-.9-2.4-1.4-5.3-1.4-8.6,0-3.4.5-6.2,1.4-8.6,1-2.4,2.3-4.2,4.1-5.4,1.8-1.2,3.9-1.9,6.4-1.9s4.6.6,6.4,1.9c1.8,1.2,3.1,3.1,4.1,5.4,1,2.4,1.4,5.2,1.4,8.6s-.5,6.2-1.4,8.6c-.9,2.4-2.3,4.2-4.1,5.4-1.8,1.3-3.9,1.9-6.4,1.9ZM331.4,237.5c1.9,0,3.4-.9,4.6-2.8,1.1-1.9,1.7-4.7,1.7-8.4s-.3-4.5-.8-6.2c-.5-1.7-1.2-2.9-2.2-3.8-.9-.9-2-1.3-3.3-1.3-1.9,0-3.4,1-4.5,2.9-1.1,1.9-1.7,4.7-1.7,8.4,0,2.5.2,4.5.7,6.2.5,1.7,1.2,2.9,2.2,3.8.9.8,2,1.3,3.3,1.3ZM360.8,210.8v30.8h-5.6v-25.4h-.2l-7.2,4.6v-5.1l7.7-4.9h5.3Z"/>
  <path d="M246.7,289.3h-6l10.8-30.8h6.9l10.9,30.8h-6l-8.2-24.5h-.2l-8.2,24.5ZM246.9,277.3h16.3v4.5h-16.3v-4.5ZM282.6,289.8c-2.3,0-4.3-.5-5.9-1.5-1.6-1-2.9-2.4-3.8-4.2-.9-1.8-1.3-3.9-1.3-6.2s.5-4.4,1.4-6.2c.9-1.8,2.2-3.2,3.8-4.2,1.7-1,3.6-1.5,5.9-1.5s3.5.3,5,1c1.5.7,2.6,1.7,3.5,2.9.9,1.2,1.4,2.7,1.5,4.4h-5.2c-.2-1.1-.7-2-1.5-2.8-.8-.8-1.8-1.1-3.1-1.1s-2.1.3-2.9.9c-.8.6-1.5,1.4-2,2.6-.5,1.1-.7,2.4-.7,4s.2,2.9.7,4.1c.5,1.1,1.1,2,1.9,2.6.8.6,1.8.9,3,.9s1.5-.2,2.2-.5c.6-.3,1.2-.8,1.6-1.3.4-.6.7-1.3.9-2.1h5.2c-.1,1.6-.6,3.1-1.4,4.3-.8,1.3-2,2.2-3.4,2.9-1.4.7-3.1,1.1-5.1,1.1ZM307,289.8c-2.3,0-4.3-.5-5.9-1.5-1.6-1-2.9-2.4-3.8-4.2-.9-1.8-1.3-3.9-1.3-6.2s.5-4.4,1.4-6.2c.9-1.8,2.2-3.2,3.8-4.2,1.7-1,3.6-1.5,5.9-1.5s3.5.3,5,1c1.5.7,2.6,1.7,3.5,2.9.9,1.2,1.4,2.7,1.5,4.4h-5.2c-.2-1.1-.7-2-1.5-2.8-.8-.8-1.8-1.1-3.1-1.1s-2.1.3-2.9.9c-.8.6-1.5,1.4-2,2.6-.5,1.1-.7,2.4-.7,4s.2,2.9.7,4.1c.5,1.1,1.1,2,1.9,2.6.8.6,1.8.9,3,.9s1.5-.2,2.2-.5c.6-.3,1.2-.8,1.6-1.3.4-.6.7-1.3.9-2.1h5.2c-.1,1.6-.6,3.1-1.4,4.3-.8,1.3-2,2.2-3.4,2.9-1.4.7-3.1,1.1-5.1,1.1ZM321.4,289.3v-23.1h5.3v3.9h.2c.4-1.3,1.1-2.4,2.2-3.1,1-.7,2.2-1.1,3.5-1.1s.6,0,1,0c.4,0,.7,0,.9.1v5c-.2,0-.6-.2-1.1-.2-.5,0-1-.1-1.4-.1-1,0-1.9.2-2.7.6-.8.4-1.4,1-1.9,1.8-.5.8-.7,1.6-.7,2.6v13.6h-5.4ZM347.5,289.8c-2.3,0-4.3-.5-6-1.4-1.7-1-3-2.3-3.9-4.1-.9-1.8-1.4-3.9-1.4-6.3s.5-4.5,1.4-6.3c.9-1.8,2.2-3.2,3.8-4.2,1.6-1,3.6-1.5,5.8-1.5s2.8.2,4,.7c1.3.5,2.4,1.2,3.4,2.1,1,1,1.8,2.2,2.3,3.6.6,1.5.8,3.2.8,5.2v1.7h-18.9v-3.7h13.7c0-1-.2-2-.7-2.8-.4-.8-1.1-1.5-1.9-1.9-.8-.5-1.7-.7-2.7-.7s-2.1.3-2.9.8c-.8.5-1.5,1.2-2,2.1-.5.9-.7,1.8-.7,2.8v3.2c0,1.3.2,2.5.7,3.5.5,1,1.2,1.7,2.1,2.2.9.5,1.9.8,3.1.8s1.5-.1,2.2-.3c.6-.2,1.2-.6,1.7-1,.5-.4.8-1,1.1-1.6l5.1.6c-.3,1.3-.9,2.5-1.8,3.5-.9,1-2,1.8-3.4,2.3-1.4.5-3,.8-4.8.8ZM370.9,289.7c-1.8,0-3.4-.5-4.9-1.4-1.4-.9-2.6-2.3-3.4-4.1-.8-1.8-1.2-3.9-1.2-6.5s.4-4.7,1.3-6.5c.9-1.8,2-3.1,3.4-4,1.4-.9,3.1-1.4,4.8-1.4s2.5.2,3.3.7c.9.5,1.6,1,2.1,1.6.5.6.9,1.2,1.2,1.8h.2v-11.5h5.5v30.8h-5.4v-3.6h-.3c-.3.6-.7,1.2-1.2,1.8-.5.6-1.2,1.2-2.1,1.6-.9.4-2,.7-3.3.7ZM372.5,285.3c1.2,0,2.1-.3,2.9-.9.8-.6,1.4-1.5,1.9-2.6.4-1.1.6-2.4.6-3.9s-.2-2.8-.6-3.9c-.4-1.1-1-2-1.8-2.6-.8-.6-1.8-.9-3-.9s-2.2.3-3,.9c-.8.6-1.4,1.5-1.8,2.6-.4,1.1-.6,2.4-.6,3.8s.2,2.7.6,3.9c.4,1.1,1,2,1.9,2.7.8.6,1.8,1,3,1ZM389.1,289.3v-23.1h5.4v23.1h-5.4ZM391.8,262.9c-.9,0-1.6-.3-2.2-.9-.6-.6-.9-1.3-.9-2.1s.3-1.5.9-2.1c.6-.6,1.4-.9,2.2-.9s1.6.3,2.2.9c.6.6.9,1.3.9,2.1s-.3,1.5-.9,2.1c-.6.6-1.4.9-2.2.9ZM411.6,266.2v4.2h-13.3v-4.2h13.3ZM401.6,260.7h5.4v21.7c0,.7.1,1.3.3,1.7.2.4.5.6.9.8.4.1.8.2,1.2.2s.7,0,.9,0c.3,0,.5,0,.7-.1l.9,4.3c-.3.1-.7.2-1.2.3-.5.1-1.2.2-2,.2-1.4,0-2.6-.2-3.7-.6-1.1-.5-2-1.2-2.6-2.1-.6-1-.9-2.2-.9-3.6v-22.6ZM426.2,289.8c-2.3,0-4.3-.5-6-1.4-1.7-1-3-2.3-3.9-4.1-.9-1.8-1.4-3.9-1.4-6.3s.5-4.5,1.4-6.3c.9-1.8,2.2-3.2,3.8-4.2,1.6-1,3.6-1.5,5.8-1.5s2.8.2,4,.7c1.3.5,2.4,1.2,3.4,2.1,1,1,1.8,2.2,2.3,3.6.6,1.5.8,3.2.8,5.2v1.7h-18.9v-3.7h13.7c0-1-.2-2-.7-2.8-.4-.8-1.1-1.5-1.9-1.9-.8-.5-1.7-.7-2.7-.7s-2.1.3-2.9.8c-.8.5-1.5,1.2-2,2.1-.5.9-.7,1.8-.7,2.8v3.2c0,1.3.2,2.5.7,3.5.5,1,1.2,1.7,2.1,2.2.9.5,1.9.8,3.1.8s1.5-.1,2.2-.3c.6-.2,1.2-.6,1.7-1,.5-.4.8-1,1.1-1.6l5.1.6c-.3,1.3-.9,2.5-1.8,3.5-.9,1-2,1.8-3.4,2.3-1.4.5-3,.8-4.8.8ZM449.6,289.7c-1.8,0-3.4-.5-4.9-1.4-1.4-.9-2.6-2.3-3.4-4.1-.8-1.8-1.2-3.9-1.2-6.5s.4-4.7,1.3-6.5c.9-1.8,2-3.1,3.4-4,1.4-.9,3.1-1.4,4.8-1.4s2.5.2,3.3.7c.9.5,1.6,1,2.1,1.6.5.6.9,1.2,1.2,1.8h.2v-11.5h5.5v30.8h-5.4v-3.6h-.3c-.3.6-.7,1.2-1.2,1.8-.5.6-1.2,1.2-2.1,1.6-.9.4-2,.7-3.3.7ZM451.2,285.3c1.2,0,2.1-.3,2.9-.9.8-.6,1.4-1.5,1.9-2.6.4-1.1.6-2.4.6-3.9s-.2-2.8-.6-3.9c-.4-1.1-1-2-1.8-2.6-.8-.6-1.8-.9-3-.9s-2.2.3-3,.9c-.8.6-1.4,1.5-1.8,2.6-.4,1.1-.6,2.4-.6,3.8s.2,2.7.6,3.9c.4,1.1,1,2,1.9,2.7.8.6,1.8,1,3,1Z"/>
</svg>