<?xml version="1.0" encoding="UTF-8"?>
<svg id="Layer_1" xmlns="http://www.w3.org/2000/svg" version="1.1" viewBox="0 0 500 500">
  <!-- Generator: Adobe Illustrator 30.0.0, SVG Export Plug-In . SVG Version: 2.1.1 Build 123)  -->
  <defs>
    <style>
      .st0 {
        fill-rule: evenodd;
      }
    </style>
  </defs>
  <path class="st0" d="M48.6,174.5v47.1c0,5.8,2.3,11.4,6.4,15.5,4.1,4.1,9.7,6.4,15.5,6.4h25.1c5.8,0,11.4-2.3,15.5-6.4,4.1-4.1,6.4-9.7,6.4-15.5v-47.1h-15.7v47.1c0,1.7-.7,3.3-1.8,4.4-1.2,1.2-2.8,1.8-4.4,1.8h-25.1c-1.7,0-3.3-.7-4.4-1.8-1.2-1.2-1.8-2.8-1.8-4.4v-47.1h-15.7Z"/>
  <path class="st0" d="M130.3,174.5v69.1h15.7v-25.1l31.4,25.1h22l-44-34.5,44-34.5h-22l-31.4,25.1v-25.1h-15.7Z"/>
  <path class="st0" d="M117.7,256.1v15.7h-47.1c-1.7,0-3.3.7-4.4,1.8-1.2,1.2-1.8,2.8-1.8,4.4v25.1c0,1.7.7,3.3,1.8,4.4,1.2,1.2,2.8,1.8,4.4,1.8h47.1v15.7h-47.1c-5.8,0-11.4-2.3-15.5-6.4-4.1-4.1-6.4-9.7-6.4-15.5v-25.1c0-5.8,2.3-11.4,6.4-15.5,4.1-4.1,9.7-6.4,15.5-6.4h47.1Z"/>
  <path class="st0" d="M130.3,325.2v-47.1c0-5.8,2.3-11.4,6.4-15.5,4.1-4.1,9.7-6.4,15.5-6.4h25.1c5.8,0,11.4,2.3,15.5,6.4,4.1,4.1,6.4,9.7,6.4,15.5v47.1h-15.7v-15.7h-37.7v15.7h-15.7ZM146,293.8h37.7v-15.7c0-1.7-.7-3.3-1.8-4.4-1.2-1.2-2.8-1.8-4.4-1.8h-25.1c-1.7,0-3.3.7-4.4,1.8-1.2,1.2-1.8,2.8-1.8,4.4v15.7Z"/>
  <path d="M259.1,192.1h5.1v18.6c0,2-.5,3.8-1.4,5.4-1,1.5-2.3,2.7-4,3.6-1.7.9-3.7,1.3-6.1,1.3s-4.3-.4-6.1-1.3c-1.7-.9-3.1-2.1-4-3.6-1-1.5-1.4-3.3-1.4-5.4v-18.6h5.1v18.1c0,1.2.3,2.2.8,3.2.5.9,1.3,1.7,2.2,2.2,1,.5,2.1.8,3.4.8s2.4-.3,3.4-.8c1-.5,1.7-1.3,2.2-2.2.5-.9.8-2,.8-3.2v-18.1ZM269.9,220.5v-28.4h5.1v13h.3l11.1-13h6.3l-11,12.7,11.1,15.7h-6.2l-8.5-12.2-3.1,3.7v8.5h-5.1Z"/>
  <path d="M266.8,245.7h-5.2c-.1-.9-.4-1.6-.8-2.3-.4-.7-.9-1.2-1.5-1.7-.6-.5-1.3-.8-2-1-.7-.2-1.6-.4-2.4-.4-1.5,0-2.9.4-4.1,1.2-1.2.8-2.1,1.9-2.8,3.4-.7,1.5-1,3.3-1,5.4s.3,4,1,5.5c.7,1.5,1.6,2.6,2.8,3.4,1.2.7,2.6,1.1,4.1,1.1s1.6-.1,2.4-.3c.7-.2,1.4-.6,2-1,.6-.4,1.1-1,1.5-1.6.4-.6.7-1.4.9-2.2h5.2c-.2,1.4-.6,2.6-1.3,3.8-.6,1.2-1.5,2.2-2.5,3.1-1,.9-2.2,1.6-3.6,2.1-1.4.5-2.9.7-4.6.7-2.5,0-4.7-.6-6.7-1.7-2-1.2-3.5-2.8-4.6-5-1.1-2.2-1.7-4.8-1.7-7.8s.6-5.7,1.7-7.8c1.1-2.2,2.7-3.9,4.6-5,2-1.2,4.2-1.7,6.7-1.7s3.1.2,4.4.7c1.4.4,2.6,1.1,3.6,2,1.1.9,1.9,1.9,2.6,3.1.7,1.2,1.1,2.6,1.4,4.2ZM280.5,264.9c-2.1,0-3.9-.5-5.4-1.4-1.5-.9-2.7-2.2-3.5-3.8-.8-1.6-1.2-3.6-1.2-5.8s.4-4.1,1.2-5.8c.8-1.7,2-2.9,3.5-3.9,1.5-.9,3.3-1.4,5.4-1.4s3.9.5,5.4,1.4c1.5.9,2.7,2.2,3.5,3.9.8,1.7,1.3,3.6,1.3,5.8s-.4,4.1-1.3,5.8c-.8,1.6-2,2.9-3.5,3.8-1.5.9-3.3,1.4-5.4,1.4ZM280.6,260.9c1.1,0,2.1-.3,2.8-.9.8-.6,1.3-1.5,1.7-2.5.4-1.1.6-2.2.6-3.5s-.2-2.5-.6-3.5c-.4-1.1-.9-1.9-1.7-2.5-.8-.6-1.7-.9-2.8-.9s-2.1.3-2.9.9c-.8.6-1.3,1.5-1.7,2.5-.4,1.1-.6,2.2-.6,3.5s.2,2.5.6,3.5c.4,1.1.9,1.9,1.7,2.5.8.6,1.7.9,2.9.9ZM300,252v12.5h-5v-21.3h4.8v3.6h.2c.5-1.2,1.3-2.1,2.3-2.8,1.1-.7,2.4-1.1,4-1.1s2.7.3,3.8.9c1.1.6,2,1.5,2.6,2.7.6,1.2.9,2.6.9,4.3v13.6h-5v-12.8c0-1.4-.4-2.5-1.1-3.3-.7-.8-1.7-1.2-3-1.2s-1.7.2-2.3.6c-.7.4-1.2.9-1.6,1.6-.4.7-.6,1.6-.6,2.6ZM329.6,243.2v3.9h-12.6v-3.9h12.6ZM320.2,264.5v-23.3c0-1.4.3-2.6.9-3.6.6-1,1.4-1.7,2.4-2.1,1-.5,2.1-.7,3.4-.7s1.6,0,2.3.2c.7.1,1.2.3,1.5.4l-1,3.9c-.2,0-.5-.1-.8-.2-.3,0-.7-.1-1.1-.1-.9,0-1.6.2-2,.7-.4.4-.6,1.1-.6,1.9v23h-5ZM342,264.9c-2.1,0-3.9-.5-5.4-1.4-1.5-.9-2.7-2.2-3.5-3.8-.8-1.6-1.2-3.6-1.2-5.8s.4-4.1,1.2-5.8c.8-1.7,2-2.9,3.5-3.9,1.5-.9,3.3-1.4,5.4-1.4s3.9.5,5.4,1.4,2.7,2.2,3.5,3.9c.8,1.7,1.3,3.6,1.3,5.8s-.4,4.1-1.3,5.8c-.8,1.6-2,2.9-3.5,3.8s-3.3,1.4-5.4,1.4ZM342,260.9c1.1,0,2.1-.3,2.8-.9.8-.6,1.3-1.5,1.7-2.5.4-1.1.6-2.2.6-3.5s-.2-2.5-.6-3.5c-.4-1.1-.9-1.9-1.7-2.5-.8-.6-1.7-.9-2.8-.9s-2.1.3-2.9.9c-.8.6-1.3,1.5-1.7,2.5-.4,1.1-.6,2.2-.6,3.5s.2,2.5.6,3.5c.4,1.1.9,1.9,1.7,2.5.8.6,1.7.9,2.9.9ZM356.5,264.5v-21.3h4.9v3.5h.2c.4-1.2,1.1-2.2,2-2.8,1-.7,2-1,3.3-1s.6,0,.9,0c.4,0,.6,0,.9,0v4.6c-.2,0-.6-.1-1-.2-.5,0-.9,0-1.3,0-.9,0-1.7.2-2.5.6-.7.4-1.3.9-1.7,1.6-.4.7-.6,1.5-.6,2.4v12.5h-5ZM372,264.5v-21.3h4.8v3.6h.2c.4-1.2,1.2-2.2,2.2-2.9,1-.7,2.3-1,3.7-1s2.7.4,3.6,1.1c1,.7,1.7,1.6,2.1,2.8h.2c.5-1.2,1.3-2.1,2.4-2.8,1.1-.7,2.5-1.1,4-1.1s3.6.6,4.8,1.9c1.2,1.2,1.9,3,1.9,5.4v14.3h-5v-13.5c0-1.3-.4-2.3-1.1-2.9-.7-.6-1.6-.9-2.6-.9s-2.2.4-2.8,1.1c-.7.7-1,1.7-1,2.9v13.3h-4.9v-13.7c0-1.1-.3-2-1-2.6-.7-.7-1.5-1-2.6-1s-1.4.2-2,.6c-.6.4-1.1.9-1.4,1.5-.4.7-.5,1.4-.5,2.3v13h-5ZM407,264.5v-21.3h5v21.3h-5ZM409.5,240.1c-.8,0-1.5-.3-2.1-.8-.6-.5-.9-1.2-.9-1.9s.3-1.4.9-1.9c.6-.5,1.3-.8,2.1-.8s1.5.3,2.1.8c.6.5.9,1.2.9,1.9s-.3,1.4-.9,1.9c-.6.5-1.2.8-2.1.8ZM427.8,243.2v3.9h-12.2v-3.9h12.2ZM418.6,238.1h5v20c0,.7.1,1.2.3,1.6.2.4.5.6.8.7.3.1.7.2,1.1.2s.6,0,.9,0c.3,0,.5,0,.6-.1l.8,3.9c-.3,0-.7.2-1.2.3-.5.1-1.1.2-1.8.2-1.3,0-2.4-.2-3.4-.6-1-.4-1.8-1.1-2.4-2-.6-.9-.9-2-.9-3.3v-20.8ZM435.1,272.5c-.7,0-1.3,0-1.9-.2-.6-.1-1-.2-1.4-.4l1.2-3.9c.7.2,1.4.3,2,.3.6,0,1.1-.2,1.5-.5.4-.3.8-.9,1.1-1.7l.4-1.2-7.7-21.7h5.3l4.9,16.1h.2l4.9-16.1h5.3l-8.5,23.9c-.4,1.1-.9,2.1-1.6,2.9-.7.8-1.5,1.4-2.4,1.9-.9.4-2.1.7-3.4.7Z"/>
  <path d="M245.3,308.4h-5.5l10-28.4h6.4l10,28.4h-5.5l-7.6-22.6h-.2l-7.6,22.6ZM245.5,297.3h15v4.1h-15v-4.1ZM286.2,292.7l-4.6.5c-.1-.5-.4-.9-.7-1.3-.3-.4-.7-.7-1.3-1-.5-.2-1.2-.4-2-.4s-1.9.2-2.6.7c-.7.5-1,1-1,1.8,0,.6.2,1.1.7,1.5.5.4,1.2.7,2.3,1l3.6.8c2,.4,3.5,1.1,4.5,2.1,1,.9,1.5,2.2,1.5,3.7,0,1.3-.4,2.5-1.2,3.5-.8,1-1.8,1.8-3.2,2.4s-2.9.9-4.7.9c-2.6,0-4.7-.5-6.3-1.6-1.6-1.1-2.5-2.6-2.8-4.6l4.9-.5c.2,1,.7,1.7,1.4,2.2.7.5,1.7.7,2.8.7s2.1-.2,2.9-.7c.7-.5,1.1-1.1,1.1-1.8s-.2-1.1-.7-1.5c-.5-.4-1.2-.7-2.2-.9l-3.6-.8c-2-.4-3.6-1.1-4.5-2.1-1-1-1.5-2.3-1.5-3.9,0-1.3.3-2.4,1.1-3.4.7-1,1.7-1.7,3-2.2,1.3-.5,2.8-.8,4.5-.8,2.5,0,4.5.5,5.9,1.6,1.4,1.1,2.3,2.5,2.7,4.3ZM307.7,292.7l-4.6.5c-.1-.5-.4-.9-.7-1.3-.3-.4-.7-.7-1.3-1-.5-.2-1.2-.4-2-.4s-1.9.2-2.6.7c-.7.5-1,1-1,1.8,0,.6.2,1.1.7,1.5.5.4,1.2.7,2.3,1l3.6.8c2,.4,3.5,1.1,4.5,2.1,1,.9,1.5,2.2,1.5,3.7,0,1.3-.4,2.5-1.2,3.5-.8,1-1.8,1.8-3.2,2.4s-2.9.9-4.7.9c-2.6,0-4.7-.5-6.3-1.6-1.6-1.1-2.5-2.6-2.8-4.6l4.9-.5c.2,1,.7,1.7,1.4,2.2s1.7.7,2.8.7,2.1-.2,2.9-.7c.7-.5,1.1-1.1,1.1-1.8s-.2-1.1-.7-1.5c-.5-.4-1.2-.7-2.2-.9l-3.6-.8c-2-.4-3.6-1.1-4.5-2.1-1-1-1.5-2.3-1.5-3.9,0-1.3.3-2.4,1.1-3.4.7-1,1.7-1.7,3-2.2,1.3-.5,2.8-.8,4.5-.8,2.5,0,4.5.5,5.9,1.6,1.4,1.1,2.3,2.5,2.7,4.3ZM321.7,308.8c-2.1,0-4-.4-5.5-1.3-1.5-.9-2.7-2.2-3.6-3.8-.8-1.6-1.2-3.6-1.2-5.8s.4-4.1,1.2-5.8c.8-1.7,2-3,3.5-3.9,1.5-.9,3.3-1.4,5.3-1.4s2.6.2,3.7.6c1.2.4,2.2,1.1,3.1,1.9.9.9,1.6,2,2.1,3.4.5,1.3.8,3,.8,4.8v1.5h-17.5v-3.4h12.6c0-1-.2-1.8-.6-2.6-.4-.8-1-1.4-1.7-1.8-.7-.4-1.6-.7-2.5-.7s-1.9.2-2.7.7c-.8.5-1.4,1.1-1.8,1.9-.4.8-.6,1.7-.7,2.6v3c0,1.2.2,2.3.7,3.2.5.9,1.1,1.6,1.9,2,.8.5,1.8.7,2.9.7s1.4-.1,2-.3c.6-.2,1.1-.5,1.5-.9.4-.4.8-.9,1-1.5l4.7.5c-.3,1.2-.9,2.3-1.7,3.2-.8.9-1.9,1.6-3.2,2.1-1.3.5-2.8.7-4.4.7ZM352.2,292.7l-4.6.5c-.1-.5-.4-.9-.7-1.3-.3-.4-.7-.7-1.3-1-.5-.2-1.2-.4-2-.4s-1.9.2-2.6.7c-.7.5-1,1-1,1.8,0,.6.2,1.1.7,1.5.5.4,1.2.7,2.3,1l3.6.8c2,.4,3.5,1.1,4.5,2.1,1,.9,1.5,2.2,1.5,3.7,0,1.3-.4,2.5-1.2,3.5-.8,1-1.8,1.8-3.2,2.4-1.4.6-2.9.9-4.7.9-2.6,0-4.7-.5-6.3-1.6-1.6-1.1-2.5-2.6-2.8-4.6l4.9-.5c.2,1,.7,1.7,1.4,2.2.7.5,1.7.7,2.8.7s2.1-.2,2.9-.7c.7-.5,1.1-1.1,1.1-1.8s-.2-1.1-.7-1.5c-.5-.4-1.2-.7-2.2-.9l-3.6-.8c-2-.4-3.6-1.1-4.5-2.1-1-1-1.5-2.3-1.5-3.9,0-1.3.3-2.4,1.1-3.4.7-1,1.7-1.7,3-2.2,1.3-.5,2.8-.8,4.5-.8,2.5,0,4.5.5,5.9,1.6,1.4,1.1,2.3,2.5,2.7,4.3ZM373.7,292.7l-4.6.5c-.1-.5-.4-.9-.7-1.3-.3-.4-.7-.7-1.3-1-.5-.2-1.2-.4-2-.4s-1.9.2-2.6.7c-.7.5-1,1-1,1.8,0,.6.2,1.1.7,1.5.5.4,1.2.7,2.3,1l3.6.8c2,.4,3.5,1.1,4.5,2.1,1,.9,1.5,2.2,1.5,3.7,0,1.3-.4,2.5-1.2,3.5-.8,1-1.8,1.8-3.2,2.4-1.4.6-2.9.9-4.7.9-2.6,0-4.7-.5-6.3-1.6-1.6-1.1-2.5-2.6-2.8-4.6l4.9-.5c.2,1,.7,1.7,1.4,2.2.7.5,1.7.7,2.8.7s2.1-.2,2.9-.7c.7-.5,1.1-1.1,1.1-1.8s-.2-1.1-.7-1.5c-.5-.4-1.2-.7-2.2-.9l-3.6-.8c-2-.4-3.6-1.1-4.5-2.1-1-1-1.5-2.3-1.5-3.9,0-1.3.3-2.4,1.1-3.4.7-1,1.7-1.7,3-2.2,1.3-.5,2.8-.8,4.5-.8,2.5,0,4.5.5,5.9,1.6,1.4,1.1,2.3,2.5,2.7,4.3ZM387.7,308.8c-2.1,0-4-.4-5.5-1.3-1.5-.9-2.7-2.2-3.6-3.8-.8-1.6-1.2-3.6-1.2-5.8s.4-4.1,1.2-5.8c.8-1.7,2-3,3.5-3.9,1.5-.9,3.3-1.4,5.3-1.4s2.6.2,3.7.6c1.2.4,2.2,1.1,3.1,1.9.9.9,1.6,2,2.1,3.4.5,1.3.8,3,.8,4.8v1.5h-17.5v-3.4h12.6c0-1-.2-1.8-.6-2.6-.4-.8-1-1.4-1.7-1.8-.7-.4-1.6-.7-2.5-.7s-1.9.2-2.7.7c-.8.5-1.4,1.1-1.8,1.9-.4.8-.6,1.7-.7,2.6v3c0,1.2.2,2.3.7,3.2.5.9,1.1,1.6,1.9,2,.8.5,1.8.7,2.9.7s1.4-.1,2-.3c.6-.2,1.1-.5,1.5-.9.4-.4.8-.9,1-1.5l4.7.5c-.3,1.2-.9,2.3-1.7,3.2-.8.9-1.9,1.6-3.2,2.1-1.3.5-2.8.7-4.4.7ZM409.3,308.8c-1.7,0-3.2-.4-4.5-1.3-1.3-.9-2.4-2.1-3.1-3.7-.8-1.6-1.2-3.6-1.2-6s.4-4.4,1.2-6c.8-1.6,1.8-2.9,3.2-3.7,1.3-.8,2.8-1.3,4.5-1.3s2.3.2,3.1.6c.8.4,1.4.9,1.9,1.5.5.6.8,1.1,1.1,1.7h.2v-10.6h5v28.4h-4.9v-3.4h-.3c-.3.5-.6,1.1-1.1,1.7-.5.6-1.1,1.1-1.9,1.5-.8.4-1.8.6-3,.6ZM410.7,304.7c1.1,0,2-.3,2.7-.9.7-.6,1.3-1.4,1.7-2.4.4-1,.6-2.2.6-3.6s-.2-2.6-.6-3.6c-.4-1-.9-1.8-1.7-2.4-.7-.6-1.6-.8-2.7-.8s-2.1.3-2.8.9c-.7.6-1.3,1.4-1.7,2.4-.4,1-.6,2.2-.6,3.5s.2,2.5.6,3.6c.4,1,1,1.9,1.7,2.5.8.6,1.7.9,2.8.9Z"/>
</svg>